<svg width="322" height="63" viewBox="0 0 322 63" fill="none" xmlns="http://www.w3.org/2000/svg"><path d="M71.6702 13.5394H88.4556C100.639 13.5394 103.617 20.6052 103.617 26.5839C103.617 32.2909 100.368 39.6284 88.4556 39.6284H78.1678V60.0105H71.6702V13.5394ZM78.1678 33.9215H86.5605C91.7044 33.9215 96.5776 32.8344 96.5776 26.5839C96.5776 20.3334 91.4337 18.9746 86.5605 18.9746H78.1678V33.9215Z" fill="black" style="fill:black;fill-opacity:1;"/><path d="M111.738 13.2679C114.174 13.2679 116.07 15.1702 116.07 17.6161C116.07 20.0619 114.174 21.9643 111.738 21.9643C109.301 21.9643 107.406 20.0619 107.135 17.8879C107.135 16.8008 107.677 15.7138 108.489 14.6267C109.572 13.8114 110.655 13.2679 111.738 13.2679ZM108.76 28.7583H114.716V59.7391H108.76V28.7583Z" fill="black" style="fill:black;fill-opacity:1;"/><path d="M121.755 28.7577H127.712V33.6494H127.982C130.148 30.1165 134.209 27.9424 138.27 27.9424C144.497 27.9424 149.641 31.4753 149.641 39.8999V59.7385H143.685V41.5305C143.685 35.8235 140.165 33.6494 136.375 33.6494C131.502 33.6494 127.441 36.9105 127.441 43.9763V60.0102H121.755V28.7577Z" fill="black" style="fill:black;fill-opacity:1;"/><path d="M160.742 46.4222C160.742 51.8575 165.886 55.3904 171.3 55.3904C174.82 55.3904 178.069 53.488 179.964 50.7704L184.566 54.3033C181.317 58.6515 175.903 60.8256 170.488 60.5538C160.471 60.5538 154.244 53.488 154.244 44.2481C153.973 39.9 155.598 35.8235 158.847 32.5624C161.825 29.573 166.156 27.6707 170.488 27.9425C181.588 27.9425 185.92 36.3671 185.92 44.2481V46.4222H160.742ZM179.693 41.8023C179.422 36.6388 176.715 32.8342 170.488 32.8342C165.344 32.8342 161.012 36.6388 160.742 41.8023H179.693Z" fill="black" style="fill:black;fill-opacity:1;"/><path d="M213.264 37.1827C211.369 35.0086 208.391 33.6498 205.413 33.6498C198.915 33.6498 195.396 38.8132 195.396 44.5202C195.125 47.2378 196.208 49.9555 198.103 51.8578C199.998 53.7601 202.705 54.8472 205.413 54.8472C208.391 54.8472 211.098 53.7601 212.993 51.3143L217.325 55.3907C214.347 58.6518 209.744 60.2824 205.413 60.2824C201.081 60.5541 196.749 58.9236 193.501 55.6624C190.252 52.6731 188.627 48.3249 188.898 43.9767C188.627 39.6285 190.252 35.2803 193.501 32.291C196.749 29.3016 201.081 27.3993 205.413 27.671C210.015 27.671 214.347 29.3016 217.596 32.5627L213.264 37.1827Z" fill="black" style="fill:black;fill-opacity:1;"/><path d="M235.192 28.214C244.396 28.4858 251.706 35.8233 251.435 44.7915C251.435 53.7596 243.855 60.8254 234.65 60.8254C225.445 60.8254 218.135 53.4878 218.135 44.5197C218.135 40.1715 220.031 36.0951 223.009 32.834C226.528 29.5728 230.86 27.9423 235.192 28.214ZM235.192 55.1184C241.689 55.1184 245.479 50.7702 245.479 44.2479C245.479 37.7257 241.418 33.3775 235.192 33.3775C228.694 33.3775 224.633 37.7257 224.633 44.2479C224.633 50.7702 228.965 55.1184 235.192 55.1184Z" fill="black" style="fill:black;fill-opacity:1;"/><path d="M257.122 28.7577H263.078V33.6494C265.244 30.1165 269.305 27.9424 273.637 27.9424C279.864 27.9424 285.008 31.4753 285.008 39.8999V59.7385H278.781V41.5305C278.781 35.8235 275.261 33.6494 271.471 33.6494C266.327 33.6494 262.537 36.9105 262.537 43.9763V60.0102H257.122V28.7577Z" fill="black" style="fill:black;fill-opacity:1;"/><path d="M296.109 46.4222C296.109 51.8575 301.252 55.3904 306.667 55.3904C310.187 55.3904 313.435 53.488 315.33 50.7704L319.933 54.3033C316.684 58.6515 311.27 60.8256 305.855 60.5538C295.838 60.5538 289.611 53.488 289.611 44.2481C289.34 39.9 290.965 35.8235 294.213 32.5624C297.191 29.573 301.523 27.6707 305.855 27.9425C316.955 27.9425 321.287 36.3671 321.287 44.2481V46.4222H296.109ZM315.06 41.8023C314.789 36.6388 312.082 32.8342 305.855 32.8342C300.711 32.8342 296.379 36.6388 296.109 41.8023H315.06Z" fill="black" style="fill:black;fill-opacity:1;"/><path d="M32.1439 10.823L33.7683 2.12661" stroke="black" style="stroke:black;stroke-opacity:1;" stroke-width="2.07533" stroke-linecap="square"/><path d="M39.7242 7.83265L34.0389 1.03862L26.4584 5.3868" stroke="black" style="stroke:black;stroke-opacity:1;" stroke-width="2.07533" stroke-linecap="square" stroke-linejoin="round"/><path d="M25.6461 48.0526L27.2705 39.3563" stroke="black" style="stroke:black;stroke-opacity:1;" stroke-width="2.07533" stroke-linecap="square"/><path d="M32.9557 45.0631L27.2703 38.5408L19.6898 42.889" stroke="black" style="stroke:black;stroke-opacity:1;" stroke-width="2.07533" stroke-linecap="square" stroke-linejoin="round"/><path d="M28.895 30.1164L30.5194 21.42" stroke="black" style="stroke:black;stroke-opacity:1;" stroke-width="2.07533" stroke-linecap="square"/><path d="M36.2046 27.1269L30.5192 20.6046L22.9387 24.9528" stroke="black" style="stroke:black;stroke-opacity:1;" stroke-width="2.07533" stroke-linecap="square" stroke-linejoin="round"/><path d="M23.4801 63C25.6459 63 27.2703 61.3694 27.2703 59.4671C27.2703 57.5648 25.6459 55.9342 23.4801 55.9342C21.3142 55.9342 19.6898 57.5648 19.6898 59.4671C19.6898 61.3694 21.585 63 23.4801 63Z" fill="black" style="fill:black;fill-opacity:1;"/><path d="M12.9211 47.2381L6.15277 51.858" stroke="black" style="stroke:black;stroke-opacity:1;" stroke-width="1.9698" stroke-linecap="square"/><path d="M13.4635 54.8476L5.34152 52.4017L5.88299 44.2489" stroke="black" style="stroke:black;stroke-opacity:1;" stroke-width="1.9698" stroke-linecap="square" stroke-linejoin="round"/><path d="M37.8285 51.5867L42.7017 58.3807" stroke="black" style="stroke:black;stroke-opacity:1;" stroke-width="1.9698" stroke-linecap="square"/><path d="M34.8504 58.6517L43.2431 59.1952L45.6797 51.3142" stroke="black" style="stroke:black;stroke-opacity:1;" stroke-width="1.9698" stroke-linecap="square" stroke-linejoin="round"/><path d="M45.6791 37.998L54.0717 39.3568" stroke="black" style="stroke:black;stroke-opacity:1;" stroke-width="2.0167" stroke-linecap="square"/><path d="M48.3874 45.3353L54.885 39.9L50.824 32.5625" stroke="black" style="stroke:black;stroke-opacity:1;" stroke-width="2.0167" stroke-linecap="square" stroke-linejoin="round"/><path d="M43.2443 21.693L50.5541 17.6165" stroke="black" style="stroke:black;stroke-opacity:1;" stroke-width="2.0167" stroke-linecap="square"/><path d="M43.5141 14.0833L51.3653 17.3445L50.0117 25.4973" stroke="black" style="stroke:black;stroke-opacity:1;" stroke-width="2.0167" stroke-linecap="square" stroke-linejoin="round"/><path d="M10.2126 32.019L1.81993 30.6602" stroke="black" style="stroke:black;stroke-opacity:1;" stroke-width="2.0167" stroke-linecap="square"/><path d="M5.07064 37.726L1.00966 30.3885L7.50722 24.9532" stroke="black" style="stroke:black;stroke-opacity:1;" stroke-width="2.0167" stroke-linecap="square" stroke-linejoin="round"/><path d="M18.3359 17.3436L12.6506 11.0931" stroke="black" style="stroke:black;stroke-opacity:1;" stroke-width="2.0167" stroke-linecap="square"/><path d="M20.5017 10.0062L12.109 10.5497L10.4846 18.7025" stroke="black" style="stroke:black;stroke-opacity:1;" stroke-width="2.0167" stroke-linecap="square" stroke-linejoin="round"/></svg>