<svg width="230" height="91" viewBox="0 0 230 91" fill="none" xmlns="http://www.w3.org/2000/svg"><g clip-path="url(#a)"><path fill-rule="evenodd" clip-rule="evenodd" d="M88.0062 30.6831C90.4748 37.0937 90.4781 45.0324 90.4781 45.0324L81.7797 45.273C81.7797 45.273 80.8224 37.4355 79.8618 32.0087C78.9029 26.5835 74.591 17.296 74.591 17.296L78.7851 15.9704C78.7851 15.9704 84.2948 21.0372 88.0062 30.6831ZM86.4533 63.1213C82.4765 71.8614 76.3911 76.6246 76.3911 76.6246L73.2754 75.4218C73.2754 75.4218 77.7067 70.9605 80.2235 60.8285C81.7117 54.8359 81.7797 47.4431 81.7797 47.4431L90.284 46.8408C90.284 46.8408 91.0041 53.1121 86.4533 63.1213ZM63.5683 84.9482C63.5683 84.9482 67.6429 81.6898 69.0813 80.4836C70.5164 79.2808 72.0742 76.9896 72.0742 76.9896L74.8299 78.0746C74.8299 78.0746 71.5948 80.6047 70.1597 81.4492C68.7196 82.2903 63.5683 84.9482 63.5683 84.9482ZM52.3033 87.2394C52.3033 87.2394 55.3012 83.8648 57.0996 80.7308C58.8964 77.5918 59.6147 74.5789 59.6147 74.5789C59.6147 74.5789 62.6093 74.9373 65.0067 75.4218C67.404 75.9029 69.798 76.6246 69.798 76.6246C69.798 76.6246 66.324 80.6047 62.1282 83.3837C57.9358 86.1527 52.3033 87.2394 52.3033 87.2394ZM46.3191 87.9627C38.5298 87.9627 34.2196 74.3351 34.2196 74.3351C34.2196 74.3351 41.8844 73.615 46.0768 73.615C50.2709 73.615 57.6969 74.3351 57.6969 74.3351C57.6969 74.3351 53.2655 87.9627 46.3191 87.9627ZM30.2627 83.2576C24.5141 79.5628 22.9546 76.5051 22.9546 76.5051C22.9546 76.5051 25.3503 75.7834 27.2698 75.4218C29.186 75.0617 32.3017 74.5773 32.3017 74.5773C32.3017 74.5773 33.1412 77.5885 34.8168 80.4853C36.4925 83.382 39.6082 87.2377 39.6082 87.2377C39.6082 87.2377 34.5763 86.0365 30.2627 83.2576ZM23.3146 82.0514C20.2022 80.1236 17.4449 78.0763 17.4449 78.0763L20.5606 76.9896C20.5606 76.9896 22.5946 79.6408 23.7941 80.8469C24.9919 82.0514 29.546 85.1904 29.546 85.1904C27.3876 84.3177 25.3038 83.2675 23.3146 82.0514ZM6.1832 63.7219C1.03183 52.266 1.99076 46.4775 1.99076 46.4775L9.89782 47.0797C9.89782 47.0797 10.1019 52.2461 11.454 57.6945C14.4503 69.7527 19.3627 75.3006 19.3627 75.3006L15.6464 76.5035C15.6464 76.5035 9.58758 71.2956 6.1832 63.7219ZM6.30265 26.3429C10.5067 18.089 13.0102 16.4531 13.0102 16.4531L17.0832 17.7787C17.0832 17.7787 13.7302 23.0845 11.5735 30.3214C9.4167 37.5583 9.77505 45.0324 9.77505 45.0324L1.86966 44.4302C1.86966 44.4302 1.50964 35.7466 6.30265 26.3429ZM19.3627 10.6646C22.9546 7.52896 29.186 4.99555 29.186 4.99555C29.186 4.99555 25.3503 7.40785 22.2395 10.9068C19.1222 14.4025 18.2843 15.8509 18.2843 15.8509L14.4503 14.7642C14.4503 14.7642 17.1131 12.6273 19.3627 10.6646ZM34.8168 9.57958C32.4212 14.2831 31.4606 17.2976 31.4606 17.2976L28.3847 17.2478L24.5523 14.1122L22.3557 16.6954L20.2022 16.3337C20.2022 16.3337 24.5406 11.0628 28.2254 8.25398C36.1325 2.22157 41.0449 2.34434 41.0449 2.34434C41.0449 2.34434 37.2108 4.87609 34.8168 9.57958ZM46.6774 1.98266C48.4742 1.98266 52.3066 4.99555 53.9839 7.40951C55.6629 9.82181 58.178 16.8148 58.178 16.8148L55.2216 17.8484L33.619 17.4154C33.619 17.4154 34.5398 12.7816 38.1681 8.1312C42.1233 3.0677 44.879 1.98266 46.6774 1.98266ZM63.5666 7.89064C68.1207 11.5091 70.0369 14.2831 70.0369 14.2831C70.0369 14.2831 67.5218 14.162 65.6056 14.7642C63.6877 15.3681 60.0942 16.2109 60.0942 16.2109C60.0942 16.2109 58.8964 13.0769 57.818 10.6646C56.7396 8.25398 52.4261 2.94825 52.4261 2.94825C52.4261 2.94825 59.638 4.76992 63.5666 7.89064ZM66.324 45.998C66.324 45.998 69.4397 41.0523 71.4753 36.591C73.516 32.1298 74.7105 28.2691 74.951 27.3035C75.1883 26.3396 75.4272 24.289 75.4272 24.289C75.4272 24.289 78.0651 31.8892 78.664 35.2638C79.2629 38.64 79.7424 45.5135 79.7424 45.5135L66.324 45.998ZM63.0888 61.1935C63.9283 55.5244 64.1688 49.4937 64.1688 49.4937L65.0083 48.1697L79.8635 47.5658C79.8635 47.5658 79.9597 55.1976 77.5873 62.0363C74.1116 72.0439 71.2381 74.8212 71.2381 74.8212C71.2381 74.8212 68.4807 73.975 65.9656 73.4906C63.4505 73.0095 60.3381 72.6478 60.3381 72.6478C60.3381 72.6478 62.251 66.8609 63.0888 61.1935ZM33.327 63.7767C33.327 63.7767 33.619 58.539 37.8114 53.8355C42.0039 49.132 45.7948 48.5994 45.7948 48.5994V43.7632C45.7948 43.7632 46.6774 42.2584 47.0358 41.5351C47.3958 40.8117 47.5517 38.5205 47.5517 38.5205V31.9589H44.6783V29.54H47.6596V26.4126H50.1598V29.5117H52.8242V31.9887H49.9093V38.4011C49.9093 38.4011 50.0304 40.0884 50.5082 41.2945C50.9893 42.5007 51.8669 43.7649 51.8669 43.7649V48.6011C51.8669 48.6011 54.3423 48.8931 56.7396 50.3382C59.1386 51.7849 60.7313 54.6285 60.7313 54.6285L62.0121 52.7471C62.0121 52.7471 61.2904 59.8646 60.4575 63.843C59.6181 67.8215 58.4202 72.2844 58.4202 72.2844C58.4202 72.2844 52.3099 71.5627 46.1996 71.5627C40.091 71.5627 33.6207 72.2844 33.6207 72.2844L31.5833 63.7767H33.327ZM30.0238 38.0394C30.0238 38.0394 30.2627 32.9742 30.7439 29.598C31.2217 26.2201 32.1823 22.0011 32.1823 22.0011L48.7512 22.0724C48.7512 22.0724 41.2872 26.9452 37.4514 30.3214C33.619 33.6993 30.0238 38.0394 30.0238 38.0394ZM26.7074 21.8286L30.1449 21.9994C30.1449 21.9994 29.546 24.8929 29.186 26.9435C28.8243 28.9941 28.2254 34.5421 28.2254 34.5421L26.7074 21.8286ZM27.2681 70.7183C29.186 68.5482 29.9044 66.1359 29.9044 66.1359L31.58 72.6478C31.58 72.6478 29.3038 73.0078 27.3859 73.3728C25.4714 73.7345 22.8202 74.1791 22.8202 74.1791C22.8202 74.1791 25.3503 72.8883 27.2681 70.7183ZM22.6327 24.0003L24.9919 45.7541L11.8124 45.1535C11.8124 45.1535 11.323 42.4973 12.413 36.4716C14.5697 24.5329 19.2416 18.2649 19.2416 18.2649L20.68 18.5038L19.0409 20.3835L22.6327 24.0003ZM19.8405 72.5283C19.8405 72.5283 14.3292 64.4486 12.7713 54.9222C12.3665 52.4485 12.1276 49.9516 12.0529 47.4447L24.393 47.8064C24.393 47.8064 21.9973 52.991 21.0417 57.3345C20.1825 61.2167 19.8038 66.2564 19.6491 68.3145L19.649 68.3151C19.6308 68.5576 19.6157 68.7587 19.6033 68.9115C19.4822 70.3582 19.8405 72.5283 19.8405 72.5283ZM72.6765 10.4224C76.0294 12.9558 77.2273 14.2831 77.2273 14.2831L73.3932 15.4892C73.3932 15.4892 71.7176 13.3175 69.5591 10.5418C67.404 7.76787 61.7748 4.3933 61.7748 4.3933C61.7748 4.3933 69.3202 7.89064 72.6765 10.4224ZM46.188 0.253906C20.758 0.253906 0.142578 20.4001 0.142578 45.2531C0.142578 70.1061 20.758 90.2539 46.188 90.2539C71.6197 90.2539 92.2351 70.1061 92.2351 45.2531C92.2351 20.4001 71.6197 0.253906 46.188 0.253906ZM146.575 56.2859L139.426 31.768H133.025L140.994 58.5289L142.334 62.7745H150.168L152.977 56.1415L153.483 55.0598L153.573 55.1577L155.782 62.7745C158.389 62.8707 161.138 62.8508 163.681 62.7745C163.857 62.334 164.038 61.8985 164.22 61.4639L164.22 61.4634L164.22 61.463L164.22 61.4626L164.22 61.4619C164.588 60.581 164.954 59.7032 165.269 58.7927L168.896 50.0959L176.167 32.3952L176.388 31.768H170.039L160.567 55.1842L160.101 56.1963C159.915 55.6776 159.753 55.1469 159.59 54.6121L159.59 54.6112L159.59 54.6105C159.518 54.3743 159.446 54.1373 159.371 53.9001L157.073 46.3629L163.067 31.7664C162.644 31.762 162.223 31.7562 161.801 31.7504C160.156 31.7279 158.524 31.7056 156.899 31.7664L154.56 37.5035L154.402 37.7158C154.066 36.7499 153.761 35.7553 153.457 34.7608L153.457 34.7601C153.149 33.7528 152.841 32.7455 152.499 31.768C150.538 31.7398 148.575 31.7398 146.614 31.768L150.878 46.411L146.847 56.047L146.626 56.3838C146.625 56.3802 146.622 56.3766 146.619 56.3729C146.615 56.3674 146.61 56.3617 146.605 56.3558C146.586 56.336 146.566 56.3135 146.575 56.2859ZM131.205 37.1653L131.416 31.7401L109.915 31.7384L108.732 62.7466H129.973C130.005 62.1104 130.041 61.4966 130.077 60.8915C130.15 59.6506 130.221 58.4464 130.25 57.1605H115.653L115.896 50.0099C115.907 49.951 115.953 49.9701 116.011 49.9944C116.024 49.9995 116.037 50.0049 116.05 50.0099H128.777C128.794 49.3707 128.819 48.7333 128.844 48.0973L128.844 48.096L128.844 48.0946L128.844 48.0934L128.844 48.0922C128.901 46.6298 128.957 45.1751 128.926 43.7253H116.136C116.163 43.0373 116.183 42.3397 116.204 41.6397L116.204 41.6388L116.204 41.6379L116.204 41.6372V41.6371V41.6369V41.6368C116.248 40.1347 116.292 38.6211 116.402 37.1653H131.205ZM178.233 31.7455H199.605C199.636 32.8898 199.567 34.0379 199.497 35.2017C199.464 35.7556 199.43 36.3131 199.407 36.8754L191.716 36.9451L190.394 62.7537C189.204 62.8276 187.981 62.8025 186.753 62.7773H186.753H186.753H186.752H186.752C185.995 62.7617 185.237 62.7461 184.484 62.7537L184.859 50.3969L185.34 37.0197L185.249 36.9633H177.995C178.027 36.3178 178.05 35.6761 178.074 35.0368V35.0364V35.0361V35.0358L178.074 35.0344C178.115 33.933 178.156 32.8389 178.233 31.7455ZM222.188 56.1175L211.788 32.0194L201.721 32.021L200.355 63.0276H206.152L207.492 39.1368L207.555 39.039L207.62 39.1086L214.809 55.4423L218.102 63.0276H227.768L229.234 32.021H223.466L222.343 56.076L222.278 56.1756C222.244 56.1822 222.226 56.16 222.211 56.1405C222.207 56.1349 222.202 56.1295 222.198 56.1251C222.195 56.1219 222.192 56.1193 222.188 56.1175ZM75.8713 82.2212C76.0786 82.2212 76.228 82.2477 76.3209 82.2992C76.4138 82.3506 76.4602 82.4551 76.4602 82.6078C76.4602 82.7687 76.3889 82.8782 76.2445 82.9363C76.1649 82.9661 76.0471 82.9827 75.8912 82.9827H75.556V82.2212H75.8713ZM76.4934 82.0437C76.3723 81.9923 76.1815 81.969 75.921 81.969H75.1861V84.0694H75.556V83.2432H75.848C76.0438 83.2432 76.1815 83.2664 76.2595 83.3096C76.3922 83.3875 76.4586 83.5485 76.4586 83.7907V83.9583L76.4652 84.0246C76.4663 84.0313 76.4674 84.0365 76.4685 84.0417C76.4691 84.0442 76.4696 84.0468 76.4702 84.0495C76.4735 84.0561 76.4752 84.0611 76.4768 84.0694H76.8236L76.8103 84.0445C76.802 84.0263 76.7953 83.9898 76.792 83.9334C76.7887 83.8786 76.7871 83.8272 76.7871 83.7791V83.6248C76.7871 83.5169 76.7489 83.4108 76.6726 83.2996C76.5963 83.1868 76.4752 83.1188 76.3126 83.0939C76.442 83.0723 76.5432 83.0375 76.6145 82.991C76.7522 82.9014 76.8202 82.7637 76.8202 82.5762C76.8202 82.3125 76.7124 82.1333 76.4934 82.0437ZM74.3151 83.0259C74.3151 82.5713 74.476 82.183 74.7945 81.8612C75.1164 81.5377 75.5046 81.3767 75.9575 81.3767C76.4138 81.3767 76.802 81.5377 77.1222 81.8612C77.4424 82.183 77.6017 82.5713 77.6017 83.0259C77.6017 83.4854 77.4424 83.877 77.1222 84.2005C76.8036 84.524 76.4154 84.6833 75.9575 84.6833C75.4996 84.6833 75.1114 84.524 74.7929 84.2005C74.4743 83.877 74.3151 83.4854 74.3151 83.0259ZM75.9575 84.9454C76.4884 84.9454 76.9397 84.7563 77.313 84.383C77.6863 84.0064 77.8737 83.5551 77.8737 83.0242C77.8737 82.495 77.6863 82.047 77.313 81.6737C76.9397 81.3004 76.4884 81.1163 75.9575 81.1163C75.4299 81.1163 74.982 81.3004 74.6104 81.6737C74.2371 82.0487 74.0496 82.4966 74.0496 83.0242C74.0496 83.5568 74.2338 84.008 74.6037 84.383C74.9754 84.7563 75.4266 84.9454 75.9575 84.9454Z" fill="black" style="fill:black;fill-opacity:1;"/></g><defs><clipPath id="a"><rect width="230" height="91" fill="white" style="fill:white;fill-opacity:1;"/></clipPath></defs></svg>