<svg width="300" height="80" viewBox="0 0 300 80" fill="none" xmlns="http://www.w3.org/2000/svg"><path opacity="0.3" d="M71.0588 44.4445C71.0588 64.0818 55.1523 80 35.5294 80C15.9065 80 0 64.0818 0 44.4445C0 24.8071 15.9065 8.88892 35.5294 8.88892C55.1523 8.88892 71.0588 24.8071 71.0588 44.4445Z" fill="black" style="fill:black;fill-opacity:1;"/><path d="M53.2939 0C72.9168 0 88.8232 15.9183 88.8232 35.5557C88.8232 55.1929 72.9168 71.1113 53.2939 71.1113C33.6711 71.1113 17.7647 55.1929 17.7646 35.5557C17.7646 15.9184 33.6711 6.16326e-05 53.2939 0ZM53.2939 7.11133C37.5953 7.11139 24.8701 19.8455 24.8701 35.5557C24.8702 51.2658 37.5954 63.9999 53.2939 64C68.9926 64 81.7177 51.2658 81.7178 35.5557C81.7178 19.8454 68.9926 7.11133 53.2939 7.11133ZM194.859 24.2549C195.221 24.255 195.376 24.4625 195.376 25.0879V32.4414H201.269C201.942 32.4414 202.147 32.5442 202.147 32.9619C202.147 33.1184 202.148 33.2752 202.097 33.4316L201.423 36.5088C201.268 37.1344 201.112 37.291 200.492 37.291H195.376V49.9629C195.376 52.7253 195.737 53.2997 197.287 53.2998C198.321 53.2998 198.787 53.1952 200.698 52.4131C200.853 52.3598 201.01 52.3076 201.164 52.3076C201.42 52.3078 201.576 52.5164 201.679 52.8291L202.507 56.4785C202.61 56.8446 202.609 56.8963 202.609 57.0527L202.611 57.0566C202.611 57.5772 202.302 57.7855 201.009 58.2031C199.252 58.7772 197.495 59.0898 195.79 59.0898C193.102 59.0898 191.138 58.2029 189.949 56.4307C189.072 55.1276 188.812 53.8242 188.812 50.9033V37.293H185.246C184.47 37.2929 184.367 37.1873 184.367 36.4053V33.3281C184.367 32.5461 184.47 32.4414 185.246 32.4414H188.812V25.8701C188.812 25.1397 188.915 25.0365 189.64 24.9316L194.394 24.2549H194.859ZM151.927 31.5518C155.08 31.5518 159.266 33.2213 159.266 34.5244C159.266 34.6808 159.214 34.8907 159.111 35.0986L157.303 38.4355C157.2 38.6435 156.99 38.7998 156.837 38.7998C156.684 38.7997 156.528 38.748 156.322 38.5918C154.409 37.1838 153.48 36.8193 151.929 36.8193C148.415 36.8194 146.813 39.5305 146.812 45.5801C146.812 51.2654 148.415 53.8203 151.98 53.8203C153.426 53.8203 154.72 53.3506 156.218 52.3604C156.424 52.2041 156.632 52.0996 156.786 52.0996C156.941 52.0998 157.096 52.2561 157.199 52.4639L158.439 55.6445C158.594 56.0618 158.594 56.062 158.594 56.2695C158.594 57.5726 154.617 59.0858 151.102 59.0859C144.072 59.0859 139.989 54.2362 139.989 45.8398C139.989 36.976 144.537 31.5519 151.927 31.5518ZM237.249 20.4443C237.611 20.4443 237.767 20.7056 237.767 21.3311V48.501C237.767 51.4219 237.766 51.5256 237.869 51.9434C238.077 52.6738 238.438 52.9863 239.163 52.9863C239.731 52.9863 240.195 52.8818 240.868 52.6738C241.024 52.6223 241.179 52.6221 241.23 52.6221C241.438 52.6221 241.593 52.7268 241.645 52.9346L242.679 57.2109L242.729 57.4189C242.781 57.5219 242.781 57.5754 242.781 57.627C242.78 58.3042 240.042 59.0859 237.562 59.0859C234.564 59.0859 232.498 57.7826 231.67 55.3311C231.256 54.1312 231.204 53.5053 231.204 48.9688V22.4785C231.204 21.9061 231.463 21.5932 231.979 21.4883L236.63 20.5488C237.146 20.4442 237.146 20.4443 237.249 20.4443ZM267.774 31.5518C270.928 31.5518 275.113 33.2213 275.113 34.5244H275.111C275.111 34.6808 275.06 34.8907 274.957 35.0986L273.148 38.4355C273.045 38.6432 272.838 38.7995 272.684 38.7998C272.529 38.7998 272.372 38.7482 272.166 38.5918C270.255 37.1839 269.323 36.8193 267.774 36.8193C264.259 36.8195 262.658 39.5306 262.658 45.5801C262.658 51.2653 264.259 53.8203 267.826 53.8203C269.272 53.8203 270.566 53.3506 272.063 52.3604C272.269 52.204 272.477 52.0996 272.632 52.0996C272.786 52.0997 272.943 52.2559 273.046 52.4639L274.287 55.6445C274.441 56.0618 274.441 56.062 274.441 56.2695C274.441 57.5726 270.462 59.0859 266.948 59.0859C259.919 59.0857 255.837 54.236 255.837 45.8398C255.837 36.976 260.385 31.5519 267.774 31.5518ZM283.648 20.4443C284.011 20.4443 284.166 20.7056 284.166 21.3311V42.2432L294.192 32.0742C294.606 31.6567 294.606 31.6572 294.812 31.6572C295.018 31.6572 295.019 31.6572 295.433 32.0215L298.223 34.2627C298.482 34.4707 298.637 34.6807 298.637 34.8887C298.637 35.0451 298.534 35.2533 298.274 35.5146L289.799 43.7549L299.309 55.3311C299.516 55.539 299.619 55.8006 299.619 55.957C299.619 56.165 299.465 56.3731 299.103 56.5811L295.021 58.876C294.658 59.084 294.657 59.084 294.503 59.084C294.246 59.0839 294.091 58.9793 293.832 58.6152L284.168 46.0996V57.3115C284.168 58.0937 284.063 58.1992 283.288 58.1992H278.482C277.707 58.1992 277.604 58.0936 277.604 57.3115V22.4248C277.604 21.7475 277.655 21.6428 278.378 21.4863L283.184 20.4961L283.648 20.4443ZM135.602 32.4395C136.378 32.4395 136.48 32.5441 136.48 33.3262V57.3154C136.48 58.0975 136.376 58.2031 135.602 58.2031H130.796C130.02 58.2031 129.917 58.0977 129.917 57.3154V37.291H125.988C125.212 37.291 125.109 37.1854 125.109 36.4033V33.3262C125.109 32.5441 125.212 32.4395 125.988 32.4395H135.602ZM251.964 32.4395C252.74 32.4395 252.843 32.5441 252.843 33.3262V57.3154C252.843 58.0975 252.74 58.2031 251.964 58.2031H247.158C246.382 58.2031 246.279 58.0977 246.279 57.3154V37.291H242.351C241.575 37.291 241.472 37.1854 241.472 36.4033V33.3262C241.472 32.5441 241.576 32.4395 242.351 32.4395H251.964ZM112.583 22.4268C113.514 22.4268 113.669 22.5832 113.669 23.5215V51.7334H125.968C126.691 51.7335 127.001 51.8899 127.001 52.3076C127.001 52.4125 127.001 52.4127 126.898 52.9336L125.968 57.2627C125.813 58.0445 125.607 58.2011 124.779 58.2012H107.673C106.691 58.2011 106.588 58.0955 106.588 57.1055V23.5215C106.588 22.5318 106.691 22.4268 107.673 22.4268H112.583ZM167.805 20.4443C168.167 20.4443 168.322 20.7056 168.322 21.3311V34.5781C170.44 32.5445 172.713 31.5538 175.452 31.5537C177.932 31.5537 180.052 32.5977 181.138 34.3701C181.912 35.6731 182.171 37.0811 182.171 39.7402V57.3135C182.171 58.0957 182.066 58.2012 181.292 58.2012H176.486C175.71 58.2012 175.607 58.0956 175.607 57.3135V41.251C175.607 38.0709 174.831 36.8711 172.765 36.8711C171.214 36.8711 170.026 37.4454 168.32 39.0098V57.3135L168.322 57.3115C168.322 58.0937 168.219 58.1992 167.442 58.1992H162.637C161.861 58.1992 161.758 58.0936 161.758 57.3115V22.4248C161.758 21.6941 161.809 21.6428 162.534 21.4863L167.34 20.4961C167.494 20.4447 167.702 20.4443 167.805 20.4443ZM214.603 22.4268C219.564 22.4268 221.218 22.7397 222.975 23.9395C225.199 25.4523 226.594 28.425 226.594 31.6055C226.594 35.4117 225.044 37.8102 221.374 39.4795C225.508 40.5746 227.885 43.7551 227.885 48.084C227.885 51.9433 225.817 55.6459 222.872 57.1055C221.218 57.9392 219.305 58.2012 215.017 58.2012H206.229C205.248 58.2011 205.145 58.0955 205.145 57.1055V23.5215C205.145 22.5833 205.299 22.4268 206.229 22.4268H214.603ZM211.867 52.5156H214.295C218.946 52.5156 220.754 51.1592 220.754 47.666C220.754 44.0679 218.998 42.6592 214.398 42.6592H211.867V52.5156ZM211.867 37.2891H214.037C216.156 37.2891 217.138 37.0795 218.068 36.4023C219.102 35.6201 219.723 34.1064 219.723 32.334C219.723 30.4568 218.999 28.997 217.708 28.2148C216.983 27.7971 216.207 27.6407 214.606 27.6406H211.867V37.2891ZM133.069 20.5498C135.343 20.5498 137.203 22.4783 137.203 24.7734C137.203 27.1199 135.344 28.9969 133.019 28.9971C130.693 28.9971 128.833 27.1199 128.833 24.7217C128.833 22.4267 130.744 20.55 133.069 20.5498ZM249.431 20.5498C251.706 20.55 253.565 22.4785 253.565 24.7734C253.565 27.12 251.704 28.997 249.379 28.9971C247.054 28.9971 245.193 27.1199 245.193 24.7217C245.193 22.4266 247.105 20.5498 249.431 20.5498Z" fill="black" style="fill:black;fill-opacity:1;"/></svg>