<svg width="360" height="47" viewBox="0 0 360 47" fill="none" xmlns="http://www.w3.org/2000/svg"><g clip-path="url(#a)"><path fill-rule="evenodd" clip-rule="evenodd" d="M37.9854 13.3597H0L10.9258 24.8383V40.6956L37.9854 13.3597ZM16.123 46.1585H54.1084L43.1826 34.68V18.8333L16.123 46.1585Z" fill="url(#b)" style=""/><path d="M68.4243 1.7749H77.3627V46.1585H68.4243V1.7749Z" fill="black" style="fill:black;fill-opacity:1;"/><path d="M88.0971 -8.08442e-05C88.7768 -0.0192493 89.4532 0.099926 90.0854 0.350232C90.7176 0.600537 91.2922 0.976744 91.7745 1.45598C92.2518 1.91312 92.6279 2.46519 92.8787 3.07661C93.1295 3.68803 93.2494 4.34523 93.2306 5.00582C93.2466 5.67554 93.1258 6.34149 92.8754 6.96285C92.625 7.58422 92.2504 8.14792 91.7745 8.61941C91.2937 9.10069 90.7193 9.47824 90.0868 9.72869C89.4543 9.97913 88.7771 10.0972 88.0971 10.0755C87.408 10.0942 86.7221 9.97498 86.0797 9.72494C85.4372 9.4749 84.8512 9.09903 84.356 8.61941C83.8781 8.14944 83.5021 7.58601 83.2516 6.96428C83.0011 6.34255 82.8813 5.67586 82.8999 5.00582C82.8785 4.34488 82.9971 3.6869 83.2481 3.07508C83.499 2.46327 83.8766 1.91149 84.356 1.45598C84.8526 0.978315 85.4388 0.603712 86.081 0.3538C86.7231 0.103887 87.4083 -0.0163798 88.0971 -8.08442e-05ZM83.5908 13.5722H92.5291V46.1584H83.5908V13.5722Z" fill="black" style="fill:black;fill-opacity:1;"/><path d="M95.5903 13.5723H105.156L113.021 37.0288L120.747 13.5723H130.132L118.441 46.1585H107.324L95.5903 13.5723Z" fill="black" style="fill:black;fill-opacity:1;"/><path d="M130.621 29.9291C130.548 26.865 131.246 23.8316 132.651 21.1077C133.979 18.6688 135.983 16.665 138.422 15.3365C141.061 13.8886 144.032 13.1558 147.042 13.2109C150.053 13.1464 153.035 13.8215 155.725 15.1771C158.188 16.3703 160.241 18.2679 161.624 20.6294C163.106 23.1193 163.874 25.9689 163.845 28.8663C163.855 29.8888 163.77 30.9101 163.59 31.9166H139.942V32.1717C140.029 34.2413 140.837 36.2153 142.227 37.7515C142.935 38.4448 143.78 38.9832 144.708 39.3327C145.636 39.6822 146.626 39.835 147.615 39.7815C149.194 39.8449 150.756 39.446 152.111 38.6337C153.341 37.8326 154.207 36.5808 154.524 35.1476H163.335C163.012 37.2677 162.164 39.2736 160.869 40.9825C159.494 42.7602 157.707 44.1756 155.661 45.1063C153.313 46.117 150.777 46.6135 148.221 46.5623C144.959 46.6429 141.724 45.9471 138.783 44.5323C136.23 43.2499 134.111 41.2423 132.693 38.7612C131.263 36.0413 130.549 33.0015 130.621 29.9291ZM154.896 26.0604C154.803 25.1734 154.537 24.3132 154.112 23.5291C153.687 22.7449 153.112 22.0521 152.419 21.4903C151.003 20.3566 149.226 19.7716 147.414 19.8429C145.613 19.7964 143.857 20.4044 142.471 21.5541C141.136 22.6963 140.294 24.3113 140.123 26.0604H154.896Z" fill="black" style="fill:black;fill-opacity:1;"/><path d="M187.493 13.2109C190.229 13.1634 192.927 13.8654 195.294 15.2409C197.607 16.5842 199.459 18.5961 200.608 21.012C201.903 23.7574 202.575 26.7554 202.575 29.791C202.575 32.8265 201.903 35.8245 200.608 38.5699C199.439 41.0054 197.594 43.0532 195.294 44.4686C192.965 45.8894 190.284 46.6261 187.556 46.5942C185.5 46.6425 183.461 46.2056 181.604 45.3188C179.953 44.4744 178.52 43.2594 177.417 41.769L176.524 46.2116H168.712V1.7749H177.651V17.7173C178.831 16.2565 180.334 15.0892 182.042 14.3073C183.75 13.5254 185.615 13.1501 187.493 13.2109ZM185.473 39.2714C186.579 39.3065 187.679 39.0904 188.69 38.6394C189.7 38.1884 190.595 37.5142 191.308 36.6674C192.745 34.6987 193.52 32.3242 193.52 29.8866C193.52 27.449 192.745 25.0745 191.308 23.1058C190.597 22.2572 189.702 21.5818 188.691 21.1306C187.68 20.6794 186.58 20.4644 185.473 20.5019C184.375 20.4581 183.282 20.6706 182.28 21.1226C181.279 21.5746 180.396 22.2536 179.702 23.1058C178.199 25.011 177.443 27.3996 177.576 29.8229C177.445 32.2849 178.199 34.7127 179.702 36.6674C180.4 37.5139 181.284 38.1875 182.285 38.6355C183.286 39.0836 184.377 39.2939 185.473 39.2501V39.2714Z" fill="black" style="fill:black;fill-opacity:1;"/><path d="M207.559 1.7749H216.539V46.1585H207.601L207.559 1.7749Z" fill="black" style="fill:black;fill-opacity:1;"/><path d="M238.636 46.541C235.494 46.6028 232.385 45.9065 229.57 44.511C227.04 43.1597 224.949 41.113 223.544 38.6123C222.174 35.8981 221.46 32.9002 221.46 29.86C221.46 26.8197 222.174 23.8219 223.544 21.1076C224.943 18.621 227.037 16.5968 229.57 15.2833C232.368 13.8309 235.484 13.1003 238.636 13.1577C241.768 13.0936 244.865 13.825 247.638 15.2833C250.192 16.5665 252.295 18.5984 253.664 21.1076C255.081 23.8188 255.822 26.8326 255.822 29.8919C255.822 32.9511 255.081 35.965 253.664 38.6761C252.274 41.172 250.177 43.2019 247.638 44.511C244.848 45.9121 241.757 46.6091 238.636 46.541ZM238.636 39.25C239.753 39.3006 240.867 39.0918 241.89 38.6401C242.914 38.1883 243.819 37.5059 244.534 36.6461C245.978 34.68 246.756 32.3045 246.756 29.8653C246.756 27.4261 245.978 25.0506 244.534 23.0845C243.82 22.2228 242.916 21.539 241.892 21.0871C240.868 20.6352 239.753 20.4275 238.636 20.4805C237.519 20.4388 236.408 20.6516 235.386 21.1027C234.364 21.5539 233.458 22.2315 232.737 23.0845C231.341 25.0699 230.591 27.438 230.591 29.8653C230.591 32.2926 231.341 34.6607 232.737 36.6461C233.462 37.4948 234.368 38.1695 235.39 38.6203C236.411 39.0711 237.52 39.2863 238.636 39.25Z" fill="black" style="fill:black;fill-opacity:1;"/><path d="M292.064 33.7978C291.635 37.459 289.821 40.8171 286.994 43.1825C283.927 45.5219 280.135 46.7105 276.281 46.5411C273.197 46.61 270.144 45.9125 267.396 44.5111C264.903 43.1571 262.857 41.1077 261.508 38.6124C260.112 35.9116 259.414 32.9047 259.478 29.8653C259.406 26.8217 260.104 23.8092 261.508 21.1077C262.851 18.6266 264.9 16.5997 267.396 15.2834C270.151 13.8299 273.23 13.0985 276.345 13.1577C280.172 12.9947 283.934 14.1837 286.973 16.5163C289.775 18.8205 291.589 22.1101 292.043 25.7097H282.785C282.475 24.2197 281.67 22.8786 280.5 21.9048C279.307 20.9196 277.796 20.4021 276.249 20.4487C275.179 20.4108 274.116 20.627 273.146 21.0796C272.176 21.5323 271.327 22.2084 270.669 23.0526C269.306 25.0511 268.576 27.4142 268.576 29.8335C268.576 32.2527 269.306 34.6158 270.669 36.6143C271.329 37.4566 272.178 38.1313 273.148 38.5838C274.117 39.0362 275.18 39.2536 276.249 39.2182C277.814 39.2779 279.346 38.7596 280.554 37.7621C281.765 36.7432 282.575 35.3268 282.839 33.7659L292.064 33.7978Z" fill="black" style="fill:black;fill-opacity:1;"/><path d="M296.9 1.7749H305.817V27.4527L318.635 13.5723H328.647L317.04 26.3262L329.305 46.1585H318.964L310.727 32.9688L305.838 38.2298V46.1585H296.9V1.7749Z" fill="black" style="fill:black;fill-opacity:1;"/><path d="M338.191 35.3177C338.253 36.0231 338.477 36.7047 338.846 37.3093C339.215 37.914 339.718 38.4254 340.316 38.8037C341.766 39.7405 343.47 40.2047 345.195 40.1323C346.746 40.2034 348.291 39.9009 349.701 39.2501C350.198 39.0048 350.617 38.6246 350.908 38.1528C351.199 37.6811 351.352 37.1369 351.349 36.5824C351.374 36.228 351.318 35.8725 351.186 35.5428C351.053 35.2132 350.847 34.9181 350.583 34.68C349.961 34.2102 349.23 33.9066 348.458 33.7978C347.529 33.5853 346.01 33.3514 343.898 33.0964C341.474 32.8111 339.078 32.3241 336.735 31.6403C334.984 31.1445 333.403 30.1776 332.165 28.8451C330.973 27.4326 330.362 25.6209 330.453 23.7754C330.418 21.7811 331.017 19.827 332.165 18.1956C333.423 16.489 335.135 15.1706 337.107 14.3906C339.425 13.469 341.903 13.0174 344.398 13.0621C348.84 13.1046 352.415 14.0541 355.122 15.9105C356.428 16.7493 357.512 17.8904 358.284 19.2373C359.055 20.5841 359.491 22.097 359.554 23.6478H351.051C350.98 23.0322 350.765 22.4419 350.424 21.9249C350.082 21.4078 349.623 20.9786 349.085 20.6719C347.766 19.8151 346.213 19.3914 344.642 19.4603C343.209 19.3977 341.787 19.7285 340.529 20.4169C340.069 20.6608 339.684 21.0249 339.414 21.4703C339.145 21.9157 339.001 22.4258 338.999 22.9464C338.978 23.2803 339.043 23.614 339.188 23.9154C339.334 24.2169 339.554 24.476 339.828 24.6682C340.475 25.0797 341.197 25.3579 341.953 25.4865C342.839 25.6566 344.316 25.8479 346.385 26.0605C350.785 26.5706 354.147 27.5201 356.471 28.9088C358.841 30.2692 360.021 32.6075 360.021 35.9553C360.047 37.9787 359.376 39.9493 358.119 41.5352C356.767 43.2377 354.967 44.5296 352.922 45.2657C350.464 46.1592 347.863 46.5916 345.248 46.5411C340.72 46.5411 337.043 45.5456 334.216 43.5546C332.864 42.6383 331.751 41.4132 330.967 39.9808C330.183 38.5484 329.752 36.9499 329.709 35.3177H338.191Z" fill="black" style="fill:black;fill-opacity:1;"/></g><defs><radialGradient id="b" cx="0" cy="0" r="1" gradientUnits="userSpaceOnUse" gradientTransform="translate(-10.5608 7.71072) rotate(31.5482) scale(67.9075 52.7161)"><stop stop-color="#B6B6B6" style="stop-color:#B6B6B6;stop-color:color(display-p3 0.7125 0.7125 0.7125);stop-opacity:1;"/><stop offset="1" stop-color="#4E4E4E" style="stop-color:#4E4E4E;stop-color:color(display-p3 0.3042 0.3042 0.3042);stop-opacity:1;"/></radialGradient><clipPath id="a"><rect width="360" height="46.5411" fill="white" style="fill:white;fill-opacity:1;"/></clipPath></defs></svg>