<svg width="141" height="112" viewBox="0 0 141 112" fill="none" xmlns="http://www.w3.org/2000/svg"><g clip-path="url(#a)"><path d="M34.9957 103.585C35.495 103.585 35.8717 103.765 36.0944 104.07H36.1198L36.1696 103.7H36.941L36.0504 108.654C35.8626 109.702 35.6243 110.257 35.2067 110.708C34.8358 111.083 34.2907 111.267 33.6823 111.267C33.248 111.267 32.8634 111.169 32.567 110.944C32.3261 110.763 32.1302 110.475 32.0573 110.041L32.8434 109.987C32.86 110.289 32.9421 110.469 33.1139 110.611C33.2605 110.768 33.4987 110.826 33.7594 110.826C34.058 110.826 34.4087 110.698 34.6637 110.42C34.9363 110.083 35.1101 109.588 35.2701 108.704L35.317 108.444H35.2955C34.9266 108.74 34.4663 108.898 33.9938 108.891C32.8519 108.891 32.2684 108.02 32.5846 106.265C32.9071 104.475 33.7248 103.585 34.9957 103.585ZM42.8473 105.696C42.959 106.343 43.0871 107.032 43.1569 107.757H43.193C43.4862 106.987 43.7714 106.33 44.0416 105.686L44.8668 103.7H45.6588L43.0065 109.65C42.8004 110.072 42.5174 110.559 42.2155 110.817C41.9303 111.073 41.556 111.266 41.0729 111.266C40.87 111.266 40.7071 111.243 40.566 111.202C40.4337 111.166 40.3058 111.114 40.1862 111.047L40.4674 110.609C40.5268 110.655 40.6105 110.715 40.7174 110.756C40.8347 110.8 40.9594 110.822 41.0846 110.821C41.3254 110.821 41.5523 110.702 41.7535 110.485C41.9286 110.282 42.1006 109.993 42.2574 109.626L42.7018 108.552L41.6754 103.699H42.5231L42.8473 105.696ZM117.015 105.696C117.129 106.343 117.256 107.032 117.326 107.757H117.36C117.654 106.987 117.941 106.33 118.212 105.686L119.037 103.7H119.829L117.174 109.65C116.97 110.072 116.685 110.559 116.384 110.817C116.074 111.106 115.665 111.267 115.241 111.266C115.04 111.266 114.878 111.243 114.735 111.202C114.603 111.166 114.475 111.114 114.355 111.047L114.636 110.609C114.695 110.655 114.78 110.715 114.887 110.756C114.99 110.797 115.118 110.821 115.253 110.821C115.494 110.821 115.721 110.701 115.922 110.485C116.098 110.282 116.27 109.993 116.424 109.626L116.872 108.552L115.845 103.699H116.691L117.015 105.696ZM14.7574 108.777H13.9694L14.0719 108.287L14.0455 108.286C13.7737 108.501 13.2973 108.891 12.5162 108.891C11.1867 108.891 10.6884 107.933 10.9918 106.244C11.3199 104.426 12.3043 103.586 13.4557 103.586C14.0587 103.586 14.473 103.847 14.7828 104.166H14.7994L15.2184 101.841H16.0074L14.7574 108.777ZM20.9547 108.777H20.1676L20.2701 108.287L20.2428 108.286C19.9718 108.501 19.4932 108.891 18.7145 108.891C17.3848 108.891 16.8856 107.933 17.1891 106.244C17.5172 104.426 18.5023 103.586 19.653 103.586C20.2566 103.586 20.6695 103.847 20.9801 104.166H20.9967L21.4156 101.841H22.2037L20.9547 108.777ZM49.0104 103.586C49.5746 103.586 50.0231 103.776 50.3258 104.16C50.6578 104.644 50.7358 105.387 50.567 106.329H47.191V106.328C46.928 107.995 47.4881 108.477 48.1608 108.477C48.7471 108.477 49.1912 108.168 49.5406 107.541L50.3346 107.592C50.1522 107.949 49.8843 108.254 49.5553 108.482C49.1908 108.727 48.7188 108.891 48.0787 108.891C47.4845 108.891 46.953 108.733 46.6344 108.306C46.3309 107.892 46.2312 107.222 46.4166 106.192C46.5807 105.282 46.9176 104.576 47.4176 104.145C47.8526 103.774 48.3821 103.586 49.0104 103.586ZM54.9733 103.587C56.2428 103.587 56.775 104.016 56.5143 105.463L56.0621 107.972C55.9845 108.403 55.9839 108.588 56.1295 108.735L56.1217 108.777L55.3141 108.776C55.2232 108.66 55.2103 108.513 55.2301 108.352H55.2115C54.8193 108.671 54.1608 108.891 53.5895 108.891C52.335 108.891 51.9054 108.374 52.0631 107.501C52.2494 106.465 53.2117 105.796 55.7086 105.493L55.7428 105.304C55.8934 104.467 55.7198 104.001 54.8766 104.001C54.1369 104.001 53.7174 104.503 53.5573 104.997L52.7555 104.94C53.0138 104.25 53.6351 103.587 54.9733 103.587ZM73.774 103.586C74.9706 103.586 75.7999 104.222 75.4362 106.24L75.4352 106.25C75.1213 107.992 74.2572 108.891 72.819 108.891C71.3704 108.891 70.8287 108.047 71.152 106.24C71.5157 104.222 72.5727 103.586 73.774 103.586ZM93.0328 103.586C93.5962 103.586 94.046 103.776 94.3463 104.16C94.6791 104.644 94.7573 105.387 94.5885 106.329H91.2106V106.328C90.9475 107.994 91.5079 108.477 92.1813 108.477C92.7661 108.477 93.2143 108.168 93.5621 107.541L94.3551 107.592C94.1959 107.904 93.9428 108.23 93.5768 108.482C93.2115 108.727 92.7386 108.891 92.0983 108.891C91.5056 108.891 90.9734 108.733 90.6549 108.306C90.3514 107.892 90.2519 107.222 90.4381 106.192C90.6022 105.282 90.9385 104.576 91.4401 104.145C91.8735 103.774 92.4045 103.586 93.0328 103.586ZM98.9938 103.587C100.263 103.587 100.795 104.016 100.535 105.463L100.082 107.972C100.006 108.403 100.004 108.588 100.151 108.735L100.142 108.777L99.3356 108.776C99.246 108.659 99.2332 108.513 99.2506 108.352H99.234C98.841 108.671 98.1813 108.891 97.61 108.891C96.3548 108.891 95.9259 108.374 96.0836 107.501C96.2691 106.465 97.2326 105.796 99.7311 105.493L99.7643 105.304C99.914 104.467 99.7418 104.001 98.8981 104.001C98.1581 104.001 97.7371 104.503 97.5778 104.997L96.777 104.94C97.0337 104.25 97.6561 103.587 98.9938 103.587ZM107.133 103.7H108.328L108.247 104.146H107.053L106.524 107.085C106.355 108.015 106.56 108.436 107.015 108.436C107.3 108.436 107.548 108.319 107.701 108.236L107.765 108.672C107.531 108.769 107.187 108.891 106.781 108.891C105.959 108.891 105.511 108.476 105.72 107.319L106.293 104.145H105.642L105.723 103.699H106.373L106.57 102.609H107.331L107.133 103.7ZM136.428 103.586C136.993 103.586 137.442 103.776 137.744 104.16C138.077 104.644 138.155 105.387 137.986 106.329H134.61V106.328C134.345 107.994 134.905 108.477 135.577 108.477C136.165 108.477 136.61 108.169 136.96 107.541L137.752 107.592C137.591 107.904 137.34 108.23 136.972 108.482C136.607 108.727 136.136 108.891 135.496 108.891C134.903 108.891 134.37 108.733 134.051 108.306C133.746 107.892 133.647 107.222 133.834 106.192C133.998 105.282 134.337 104.576 134.836 104.145C135.272 103.774 135.8 103.586 136.428 103.586ZM65.2155 103.584C65.6575 103.584 66.0024 103.674 66.2535 103.858C66.4524 104.005 66.5759 104.209 66.5973 104.485L65.9137 104.531C65.878 104.256 65.6497 103.992 65.1578 103.992C64.9123 103.992 64.6648 104.051 64.485 104.166C64.3186 104.293 64.1911 104.497 64.1451 104.75C64.127 104.846 64.1283 104.945 64.1481 105.04C64.1679 105.136 64.2065 105.227 64.2614 105.308C64.3937 105.499 64.5574 105.593 65.1119 105.837C65.6474 106.083 65.9215 106.267 66.0895 106.518C66.2281 106.71 66.2951 106.987 66.2262 107.369C66.1454 107.817 65.9522 108.174 65.6051 108.455C65.2667 108.719 64.8041 108.89 64.2565 108.89C63.8412 108.89 63.4759 108.833 63.2057 108.66C62.9561 108.528 62.7812 108.265 62.7321 107.933L63.4528 107.884C63.4972 108.272 63.8217 108.484 64.2955 108.484C64.568 108.484 64.8403 108.397 65.0621 108.207C65.2341 108.052 65.3665 107.804 65.4323 107.439C65.4695 107.224 65.4458 107 65.3317 106.82C65.1977 106.594 64.9566 106.451 64.4528 106.259C63.9292 106.033 63.6839 105.863 63.5231 105.598C63.3789 105.382 63.331 105.101 63.3824 104.815C63.4153 104.625 63.4881 104.444 63.5963 104.284C63.7046 104.125 63.8461 103.991 64.0104 103.891C64.3344 103.69 64.7155 103.584 65.2155 103.584ZM85.6168 104.34H85.6412C85.9462 104.144 86.2619 103.951 86.5826 103.815C86.8955 103.676 87.2326 103.587 87.5621 103.587C88.0136 103.587 88.3791 103.693 88.5709 103.948C88.7524 104.193 88.8079 104.543 88.7057 105.11L88.0465 108.777L87.2594 108.776L87.8776 105.337C87.9488 104.938 87.9865 104.576 87.8473 104.359C87.7419 104.209 87.556 104.109 87.2184 104.109C86.9799 104.109 86.7153 104.174 86.442 104.301C86.1036 104.466 85.7901 104.677 85.5104 104.93L84.817 108.777H84.0309L85.278 101.841H86.066L85.6168 104.34ZM110.987 104.34H111.012C111.317 104.144 111.633 103.951 111.953 103.815C112.266 103.676 112.602 103.587 112.933 103.587C113.383 103.587 113.749 103.693 113.942 103.948C114.123 104.193 114.18 104.543 114.076 105.11L113.417 108.777L112.63 108.776L113.249 105.337C113.32 104.938 113.356 104.576 113.218 104.359C113.111 104.209 112.927 104.109 112.589 104.109C112.32 104.116 112.055 104.181 111.813 104.301C111.536 104.431 111.157 104.671 110.881 104.93L110.188 108.777H109.4L110.649 101.841H111.437L110.987 104.34ZM9.06897 108.776H8.15686L7.89709 106.369H5.4176L4.401 108.776H3.49475L6.94495 101.067H8.05139L9.06897 108.776ZM23.9781 108.776H23.1959L24.108 103.699H24.8912L23.9781 108.776ZM29.7496 103.586C30.2003 103.586 30.5666 103.693 30.7584 103.947C30.9399 104.192 30.9946 104.543 30.8932 105.109L30.233 108.776H29.4459L30.0651 105.332C30.1364 104.934 30.1713 104.585 30.0319 104.366C29.9257 104.218 29.7484 104.108 29.3951 104.108C29.1575 104.108 28.9005 104.178 28.6295 104.3C28.2903 104.464 27.9758 104.676 27.6959 104.929L27.0045 108.776H26.2174L27.1305 103.699H27.9176L27.7848 104.343H27.8258C28.1265 104.143 28.4421 103.966 28.7692 103.814C29.0769 103.671 29.4106 103.593 29.7496 103.586ZM103.076 108.776H102.293L103.54 101.841H104.325L103.076 108.776ZM124.525 108.776H123.741L124.991 101.841H125.774L124.525 108.776ZM127.568 108.776H126.785L127.698 103.699H128.481L127.568 108.776ZM61.1969 103.586C61.3457 103.586 61.485 103.604 61.6061 103.645C61.7066 103.679 61.7818 103.719 61.861 103.777L61.6647 104.308C61.6043 104.245 61.5312 104.196 61.4508 104.162C61.3321 104.117 61.2055 104.095 61.0787 104.099C60.8847 104.099 60.6716 104.162 60.4078 104.317C60.1442 104.483 59.9011 104.68 59.6842 104.904L58.9869 108.775H58.2076L59.1217 103.699H59.9L59.7887 104.228H59.817V104.23C60.0294 104.05 60.2364 103.887 60.4733 103.767C60.6944 103.662 60.9298 103.586 61.1969 103.586ZM79.8619 101.739C80.0846 101.739 80.2926 101.755 80.4733 101.8C80.608 101.833 80.7332 101.881 80.8434 101.947L80.6442 102.392C80.5699 102.328 80.4831 102.282 80.3893 102.255C80.2365 102.21 80.0778 102.188 79.9186 102.19C79.7098 102.183 79.5033 102.235 79.3229 102.341C79.1018 102.494 78.942 102.811 78.8453 103.34L78.7819 103.699H79.9713L79.8912 104.147H78.7018L77.8668 108.775H77.0944L77.9283 104.147H77.3141L77.3942 103.699H78.0094L78.0709 103.35C78.1811 102.739 78.3944 102.28 78.7565 102.024C79.0306 101.848 79.3961 101.739 79.8619 101.739ZM132.74 101.739C132.961 101.739 133.169 101.755 133.35 101.8C133.487 101.833 133.612 101.881 133.722 101.947L133.523 102.392C133.449 102.328 133.362 102.282 133.268 102.255C133.115 102.21 132.957 102.188 132.797 102.19C132.589 102.183 132.382 102.235 132.202 102.341C131.981 102.494 131.821 102.811 131.724 103.34L131.661 103.699H132.851L132.769 104.147H131.579L130.746 108.775H129.973L130.806 104.147H130.192L130.272 103.699H130.888L130.95 103.35C131.06 102.739 131.272 102.28 131.634 102.024C131.91 101.848 132.273 101.739 132.74 101.739ZM55.6403 105.882C53.8414 106.125 53.027 106.67 52.8844 107.461C52.7784 108.052 52.9777 108.454 53.819 108.454C54.1755 108.454 54.8001 108.305 55.2819 107.867L55.6403 105.882ZM99.6598 105.882C97.8612 106.125 97.0475 106.67 96.9049 107.461C96.7981 108.052 96.9992 108.454 97.8414 108.454C98.1956 108.454 98.819 108.305 99.3024 107.867L99.6598 105.882ZM73.6949 104.028C72.9819 104.029 72.2503 104.564 71.9469 106.24C71.6561 107.858 72.0938 108.449 72.8981 108.449H72.9088C73.7225 108.449 74.3665 107.771 74.6422 106.24C74.9441 104.558 74.4034 104.028 73.6949 104.028ZM13.5319 104.076C12.6879 104.076 12.0553 104.836 11.7946 106.254C11.5379 107.651 11.9131 108.403 12.7506 108.403H12.7604C13.4172 108.403 13.8874 107.967 14.1862 107.58L14.6813 104.822C14.4119 104.416 14.0404 104.076 13.5319 104.076ZM19.7272 104.076C18.8832 104.076 18.2508 104.836 17.9908 106.254C17.7342 107.651 18.1092 108.403 18.9459 108.403H18.9567C19.6135 108.403 20.0837 107.967 20.3824 107.58L20.8776 104.822C20.6074 104.416 20.2374 104.076 19.7272 104.076ZM35.0582 104.089C34.1691 104.089 33.6354 104.801 33.3707 106.274L33.3698 106.283C33.1305 107.609 33.4881 108.389 34.2496 108.389C34.7765 108.389 35.1581 108.106 35.4323 107.798L35.9928 104.68C35.828 104.348 35.5311 104.089 35.0582 104.089ZM48.9313 103.999C48.2696 103.999 47.5724 104.433 47.2594 105.953H49.8258C49.9962 104.677 49.593 103.999 48.9313 103.999ZM92.9518 103.999C92.2878 103.999 91.5927 104.433 91.2789 105.953H93.8453C94.0173 104.677 93.6111 103.999 92.9518 103.999ZM136.35 103.999C135.686 103.999 134.99 104.433 134.677 105.953H137.243C137.415 104.677 137.011 103.999 136.35 103.999ZM7.37756 101.628C7.11183 102.331 6.83363 103.031 6.5426 103.724L5.67444 105.794H7.82776L7.62073 103.72C7.55258 103.039 7.48157 102.388 7.43323 101.628H7.37756ZM25.0836 102.636H24.3014L24.4489 101.814H25.2321L25.0836 102.636ZM128.672 102.636H127.889L128.039 101.814H128.822L128.672 102.636ZM96.0582 77.1593V78.7638L96.1022 78.8088C96.5436 78.1918 97.5149 77.1156 99.1383 77.1154C101.016 77.1154 102.62 78.9168 102.62 81.842C102.62 84.3696 101.121 87.4474 98.1881 87.4474C97.3444 87.4473 96.7531 87.2074 96.0582 86.5031V89.9543C96.0583 91.3613 96.3965 91.6037 97.9147 91.6037V92.0002H92.8102V91.6252C94.2017 91.5162 94.2867 91.0531 94.2867 90.1086V79.8185C94.2867 78.9401 94.2231 78.5648 93.485 78.5646C93.2964 78.5646 93.0837 78.565 92.8951 78.5881V78.2365C93.9209 77.9009 94.9336 77.5264 95.9313 77.1144L96.0582 77.1593ZM62.649 77.005H62.1647C61.5949 75.422 60.497 73.2463 57.5446 73.2463C55.5404 73.2463 52.4391 74.6315 52.4391 80.1925C52.4392 84.1725 54.632 86.6562 57.903 86.6564C59.3357 86.6564 60.7926 86.1516 60.7926 85.3605V81.798C60.7925 79.9729 60.3702 79.9523 58.9362 79.841V79.4464H64.316L64.3151 79.841C63.3872 79.93 62.8376 79.9728 62.8375 81.5334V85.9543C62.8375 86.2604 60.0326 87.5363 57.7115 87.5363C55.6242 87.5363 53.2806 86.8765 51.7828 85.1838C50.6657 83.9093 50.0338 82.6122 50.0338 79.7326C50.0339 76.0386 52.7746 72.3674 57.2487 72.3673C59.3788 72.3673 60.3491 73.0929 61.025 73.0929C61.1933 73.0929 61.8903 72.9818 62.0162 72.3673H62.4801L62.649 77.005ZM85.4244 84.5021C85.4246 84.8113 85.6152 86.1728 87.0074 86.173C87.6398 86.173 88.2717 85.8662 88.8414 85.382C89.0316 85.2055 89.1793 84.986 89.1793 84.2609V79.0949C89.1793 78.2148 89.0951 77.7545 87.6188 77.7091V77.3351H90.9528V84.8761C90.9528 85.6673 90.994 86.1726 92.2604 86.1281L92.2614 86.4386C91.121 86.7463 90.3183 87.0552 89.3278 87.4289L89.2858 87.383V85.5588L88.3785 86.5041C87.5552 87.3618 86.5433 87.4484 86.1637 87.4484C85.2983 87.4483 83.653 86.922 83.653 84.591V79.05C83.653 77.7302 82.9791 77.6873 82.3444 77.6427V77.3341H85.4244V84.5021ZM76.7731 77.1154C79.5371 77.1154 81.5201 79.0276 81.5201 82.216C81.5201 84.3922 80.0419 87.4474 76.8365 87.4474C74.1154 87.4473 72.2165 85.1832 72.2164 82.216C72.2164 79.5127 73.9473 77.1155 76.7731 77.1154ZM70.5133 77.1154C71.2312 77.1154 71.6539 77.5762 71.6539 78.3029C71.6539 78.8514 71.3586 79.2695 70.8531 79.2697C70.1138 79.2697 69.9033 78.4992 69.3961 78.4992C68.8889 78.4995 67.9615 79.5993 67.9615 80.3029V85.2502C67.9616 86.7679 68.6784 86.8549 69.7545 86.8986V87.2287H64.692V86.8986C65.8526 86.6792 66.1891 86.6127 66.1891 85.382V79.8849C66.1891 78.589 65.7892 78.5656 65.4508 78.5656C65.157 78.5656 64.9249 78.6092 64.734 78.6545V78.3029C65.7891 77.9457 66.8311 77.5498 67.8571 77.1154L67.9615 77.1603V79.1154H68.0035C68.9955 77.5548 69.7131 77.1155 70.5133 77.1154ZM76.6061 77.7306C75.2748 77.7306 74.116 78.8746 74.1158 81.1603C74.1158 82.7871 74.6021 86.8322 77.1324 86.8322C78.2086 86.8321 79.6217 85.9972 79.6217 82.8537C79.6217 80.1288 78.5452 77.7306 76.6061 77.7306ZM98.1256 78.4338C97.3656 78.4339 96.185 79.0494 96.0582 79.8849V85.2941C96.0582 85.799 97.0488 86.7441 98.2096 86.7443C98.9054 86.7443 100.803 86.3264 100.803 82.5011C100.803 81.995 100.699 78.4338 98.1256 78.4338ZM36.0084 38.1252C37.8151 48.157 36.1527 59.0924 30.566 67.6994C27.795 71.9648 24.0311 75.5482 19.192 78.3683C12.6646 82.1698 6.89711 80.9563 2.29456 73.3312C1.78979 72.4948 1.1704 71.5213 0.862915 70.5314C4.18406 75.1215 7.84998 76.915 11.3922 76.6701C22.9818 75.871 27.7479 61.9615 27.3707 52.1466C27.278 49.7295 27.099 47.0304 27.3795 43.2687C27.9651 42.1262 31.8711 40.229 33.1432 39.507L33.5104 39.298L35.0846 38.4113C35.3917 38.3137 35.7001 38.2189 36.0084 38.1252ZM85.9098 19.1437C87.0628 20.5613 88.5166 22.1256 89.3541 23.7443C88.3263 24.184 81.0372 24.1829 79.1393 24.342C74.101 24.761 69.1007 25.4692 64.0514 26.2834C58.9092 27.1127 53.8478 28.3042 48.6461 30.1672C31.5914 36.3573 18.4899 46.3165 18.4371 46.3566C-0.732362 63.2853 11.1362 71.4113 11.192 71.4494L8.0426 70.0724C4.67343 67.5071 4.41167 61.123 4.41077 61.1007C4.2582 56.1981 6.7628 51.2965 6.77502 51.2726C11.1456 43.3033 17.5515 36.8375 23.2926 32.1252C23.2635 32.0761 23.2351 32.0266 23.2057 31.9777C20.7864 27.9243 14.7886 19.4317 7.06311 19.3361L23.4821 11.9445C23.4821 11.9445 24.5841 12.8839 26.3385 14.5822C27.7138 15.9383 32.1295 21.2849 33.5709 24.8185C35.3391 23.7428 36.4192 23.1809 36.442 23.1691C55.7788 12.3624 78.5464 10.2064 78.652 10.1964C78.652 10.1964 82.6346 15.118 85.9098 19.1437ZM92.3405 57.8058C92.4891 57.8059 92.4889 57.9074 92.4889 58.0685V60.4084H94.61L94.609 61.0558H92.4889V66.8263C92.4889 67.4521 92.4888 68.6418 93.5602 68.6418C94.2312 68.6416 94.6093 68.198 94.8414 67.9357L95.1158 68.1574C94.6095 69.024 93.6218 69.6905 92.6559 69.6906C91.5846 69.6906 90.7234 69.1458 90.7233 67.1281V61.0558H89.609C89.5679 61.0351 89.5252 60.9745 89.525 60.9142C89.525 60.6725 89.9876 60.5513 90.4489 60.1076C91.2491 59.3197 91.5639 58.8752 92.3405 57.8058ZM110.825 60.2072C111.581 60.2072 112.527 60.511 113.051 60.8322C113.681 61.2568 113.955 61.882 113.955 62.2453C113.955 62.7086 113.619 63.0923 112.988 63.133C112.443 63.1735 112.085 62.6478 111.96 62.2033L111.833 61.7609C111.664 61.155 111.56 60.7902 110.446 60.7902C109.669 60.7903 107.738 61.4175 107.738 64.383C107.738 66.703 109.186 68.2364 110.951 68.2365C112.463 68.2365 113.24 67.3688 113.955 66.341L114.251 66.5226C113.114 68.8228 111.749 69.6896 110.047 69.6896C108.367 69.6895 106.119 68.3778 106.119 65.1896C106.119 61.8815 108.555 60.2073 110.825 60.2072ZM69.5846 60.2062C71.5615 60.2064 73.0522 61.2567 73.2828 63.8986H66.7487C67.0006 67.4699 68.7026 68.2959 70.0885 68.2961C71.9579 68.2961 72.8627 66.9247 73.3453 66.1789L73.6813 66.3205C73.4721 66.9454 72.252 69.6886 69.2272 69.6886C66.896 69.6885 65.2985 68.0345 65.2985 65.1691C65.2986 61.437 67.9046 60.2062 69.5846 60.2062ZM136.04 60.2062C138.014 60.2062 139.507 61.2565 139.738 63.8986H133.205C133.457 67.47 135.158 68.296 136.545 68.2961C138.414 68.2961 139.319 66.9247 139.801 66.1789L140.137 66.3205C139.928 66.9454 138.708 69.6886 135.682 69.6886C133.35 69.6885 131.755 68.0345 131.755 65.1691C131.755 61.4373 134.359 60.2064 136.04 60.2062ZM78.6969 60.2052C81.8263 60.2052 81.8268 62.2244 81.8268 63.4338V67.3673C81.8268 67.9533 81.8269 68.5382 82.4371 68.5382C82.8776 68.5382 83.1519 68.3367 83.3824 68.1554L83.3834 68.6779C82.5014 69.667 81.8493 69.6877 81.5133 69.6877C81.1335 69.6876 80.2526 69.6659 80.1471 68.215C79.3713 68.8813 78.2564 69.6877 77.1002 69.6877C75.9657 69.6875 74.8748 68.9398 74.8746 67.59C74.8746 65.5728 76.7012 64.8862 80.1246 63.5949V62.3644C80.1246 60.9117 79.1368 60.6906 78.5084 60.6906C77.8151 60.6907 77.0163 61.0531 77.0162 61.6779C77.0162 61.98 77.1217 62.2829 77.1217 62.465C77.1217 62.888 76.7224 63.3322 76.1764 63.3322C75.5245 63.3321 75.2722 62.7675 75.2721 62.4455C75.2721 61.6385 76.2597 60.2054 78.6969 60.2052ZM119.516 60.2052C122.647 60.2052 122.647 62.2244 122.647 63.4338V67.3673C122.647 67.9532 122.648 68.538 123.257 68.5382C123.696 68.5382 123.971 68.3367 124.203 68.1554L124.204 68.6779C123.322 69.667 122.671 69.6877 122.335 69.6877C121.955 69.6877 121.075 69.6665 120.967 68.215C120.19 68.8812 119.078 69.6876 117.922 69.6877C116.787 69.6877 115.694 68.9399 115.694 67.59C115.694 65.5728 117.524 64.8861 120.947 63.5949V62.3644C120.947 60.9117 119.959 60.6906 119.328 60.6906C118.634 60.6907 117.838 61.0531 117.838 61.6779C117.838 61.98 117.943 62.2829 117.943 62.465C117.943 62.888 117.543 63.3322 116.996 63.3322C116.345 63.3321 116.093 62.7675 116.093 62.4455C116.093 61.6385 117.08 60.2054 119.516 60.2052ZM55.8483 56.5158C54.2524 56.6366 53.9987 56.8985 53.9987 58.3302V62.2453H60.3649V58.3302C60.3648 56.8382 60.0707 56.6366 58.5162 56.5158V56.133H64.3551V56.5158C62.7597 56.6367 62.5065 56.8987 62.5065 58.3302V67.2873C62.5065 68.619 62.7167 69.0025 64.3551 69.1027V69.4855H58.5162V69.1027C60.28 69.0224 60.3649 68.5786 60.3649 67.0656V63.133H53.9987V67.2882C53.9987 68.6201 54.2111 69.0035 55.8483 69.1037V69.4865H50.0084V69.1027C51.773 69.0224 51.8571 68.5786 51.8571 67.0656V58.3302C51.857 56.8382 51.5629 56.6366 50.0084 56.5158V56.133H55.8483V56.5158ZM87.2428 55.7492V67.7922C87.2428 68.9618 87.6 69.1243 88.818 69.1847V69.4865H83.859V69.1847C85.0995 69.1036 85.4761 68.8419 85.4762 67.7316V58.1086C85.4762 57.1999 85.3504 56.8781 84.5319 56.8781C84.2586 56.8781 84.0689 56.8981 83.817 56.9172V56.5959C84.9402 56.3372 86.055 56.0413 87.1588 55.7091L87.2428 55.7492ZM98.3854 55.7677V61.8605H98.4274C99.162 60.8515 100.192 60.2062 101.454 60.2062C104.036 60.2064 104.056 62.6058 104.056 63.4132V67.4298C104.056 68.9015 104.269 69.0027 105.318 69.1847V69.4855H100.864V69.1838C101.893 69.0828 102.295 68.9817 102.295 67.4289V63.4338C102.295 62.0829 101.831 61.2961 100.675 61.2961C100.067 61.2961 99.246 61.5989 98.3854 62.5666V67.4298C98.3854 68.9827 98.7857 69.0837 99.8151 69.1847V69.4865H95.276V69.1847C96.41 69.0424 96.6198 68.9016 96.6198 67.4298V57.9279C96.6198 57.3221 96.6195 56.8987 95.6959 56.8986C95.5707 56.8986 95.3593 56.8981 95.2975 56.9172V56.5959C96.2421 56.3327 97.2721 56.051 98.2809 55.7091L98.3854 55.7677ZM130.142 60.2072C130.856 60.2072 131.276 60.6316 131.276 61.297C131.276 61.8019 130.981 62.1847 130.478 62.1847C129.743 62.1844 129.533 61.4777 129.028 61.4777C128.525 61.4783 127.599 62.4875 127.599 63.133V67.6711C127.599 69.0628 128.313 69.1442 129.385 69.1847V69.4865H124.343V69.1847C125.5 68.9828 125.836 68.9228 125.836 67.7922H125.835V62.7482C125.835 61.5584 125.436 61.5383 125.098 61.5382C124.806 61.5382 124.573 61.5788 124.386 61.6193V61.297C125.434 60.9701 126.471 60.6066 127.494 60.2072L127.599 60.2472V62.0431H127.641C128.628 60.6121 129.342 60.2073 130.142 60.2072ZM80.1237 64.0793C76.9524 65.0875 76.7213 66.2191 76.7213 66.9045V66.9445C76.7213 67.8923 77.3308 68.5187 78.109 68.5187C78.5708 68.5185 79.2214 68.2572 79.4117 68.1554C80.0616 67.8517 80.1237 67.6101 80.1237 67.005V64.0793ZM120.946 64.0793C117.773 65.0874 117.543 66.2191 117.543 66.9045V66.9445C117.543 67.8921 118.152 68.5185 118.927 68.5187C119.39 68.5187 120.042 68.2572 120.231 68.1554C120.882 67.8517 120.946 67.6101 120.946 67.005V64.0793ZM69.1217 60.9328C67.9665 60.9329 67.1471 61.478 66.8112 63.2541H71.1393C70.9911 62.2848 70.7827 60.9328 69.1217 60.9328ZM135.577 60.9328C134.422 60.9329 133.604 61.478 133.268 63.2541H137.595C137.448 62.2848 137.238 60.9328 135.577 60.9328ZM61.6403 49.3771H61.6823V42.506C61.6822 40.1407 61.0889 39.9758 59.649 39.8732V39.4816H64.6276V39.8732C63.2931 40.0171 62.6149 40.1002 62.6149 42.507V53.3283H62.2535L52.9371 42.0539H52.8951V50.0783C52.8952 52.1971 53.3401 52.6491 54.8854 52.7111V53.1007H49.9088V52.7111C51.5175 52.6085 51.9635 52.2996 51.9635 50.0773V41.005C51.0958 39.9754 50.7552 39.8732 49.9088 39.8732V39.4816H53.5309L61.6403 49.3771ZM77.4489 41.1906C77.5977 41.1906 77.5983 41.2919 77.5983 41.4562V43.8439H79.7369L79.736 44.5031H77.5973V50.3869C77.5973 51.0245 77.5974 52.2393 78.6774 52.2394C79.354 52.2394 79.7362 51.7869 79.9684 51.5197L80.2438 51.7463C79.7358 52.6303 78.7401 53.3097 77.7662 53.3097C76.6877 53.3097 75.819 52.7532 75.819 50.6955V44.5031H74.6959C74.6547 44.4816 74.611 44.42 74.611 44.3595C74.611 44.1123 75.0786 43.9894 75.5446 43.5363C76.3488 42.7341 76.6645 42.2812 77.4489 41.1906ZM69.5778 43.6369C72.7322 43.6369 72.733 45.695 72.733 46.9298V50.9416C72.733 51.5386 72.7326 52.1356 73.3463 52.1359C73.7901 52.1359 74.0666 51.9288 74.3004 51.7443V52.2785C73.4105 53.2867 72.7538 53.3088 72.4147 53.3088C72.0342 53.3088 71.1441 53.287 71.0387 51.8058C70.2558 52.4856 69.1332 53.3087 67.9684 53.3088C66.8257 53.3088 65.7234 52.5469 65.7233 51.1691C65.7233 49.1121 67.5671 48.4124 71.0182 47.0949V45.84C71.0182 44.3588 70.0219 44.132 69.3864 44.132C68.6883 44.1322 67.8844 44.5033 67.8844 45.1408C67.8845 45.4491 67.9898 45.7581 67.9899 45.9425C67.9899 46.3751 67.5859 46.8263 67.0367 46.8263C66.3802 46.8261 66.1266 46.2503 66.1266 45.922C66.1266 45.0983 67.122 43.6369 69.5778 43.6369ZM91.2867 43.6379C94.0601 43.6381 96.0525 45.4276 96.0533 48.4123C96.0533 50.4486 94.5684 53.3088 91.3502 53.3088C88.618 53.3086 86.7135 51.1887 86.7135 48.4123C86.7135 45.8806 88.4482 43.6379 91.2867 43.6379ZM111.917 43.6369C115.071 43.6371 115.072 45.6951 115.072 46.9298V50.9416C115.072 51.5387 115.072 52.1358 115.684 52.1359C116.13 52.1359 116.404 51.9288 116.639 51.7443V52.2785C115.749 53.2867 115.091 53.3088 114.754 53.3088C114.371 53.3087 113.484 53.2866 113.377 51.8058C112.594 52.4856 111.472 53.3086 110.306 53.3088C109.164 53.3088 108.062 52.5469 108.062 51.1691C108.062 49.1122 109.905 48.4123 113.355 47.0949V45.84C113.355 44.3588 112.36 44.132 111.725 44.132C111.026 44.132 110.222 44.5031 110.222 45.1408C110.222 45.4491 110.328 45.7581 110.328 45.9425C110.328 46.375 109.926 46.8262 109.377 46.8263C108.719 46.8263 108.465 46.2504 108.465 45.922C108.465 45.0983 109.46 43.6369 111.917 43.6369ZM84.0084 43.6994V51.0031C84.0084 52.3603 84.1122 52.7104 85.5748 52.7931V53.1017H80.5553V52.7922C81.8676 52.7301 82.2281 52.6073 82.2281 51.0021V46.2297C82.2281 45.0149 81.8261 44.9953 81.4869 44.9953C81.2031 45.0009 80.9198 45.0279 80.6403 45.0773V44.7687C81.7409 44.4181 82.8212 44.0281 83.9235 43.6369L84.0084 43.6994ZM100.098 43.6789V45.3048C101.135 44.3587 101.94 43.6379 103.189 43.6379C104.165 43.6379 105.666 44.1943 105.667 46.7238V51.4357C105.667 52.4017 105.92 52.7104 106.958 52.7931V53.1017H102.554V52.7931C103.338 52.7311 103.888 52.6287 103.888 51.0656V46.7658C103.888 45.5112 103.508 44.7699 102.257 44.7697C101.623 44.7697 100.965 45.1808 100.16 45.9425V51.7228C100.16 52.4018 100.457 52.731 101.559 52.7931V53.1017H97.0709V52.7931C98.0662 52.7311 98.3814 52.4642 98.3815 51.2502V46.1476C98.3814 44.8511 97.981 44.8312 97.6403 44.8312C97.3449 44.8312 97.1113 44.8719 97.028 44.9132V44.5627C98.0122 44.2891 98.9867 43.9806 99.9489 43.6369L100.098 43.6789ZM120.529 39.091V51.3742C120.529 52.5666 120.889 52.7311 122.118 52.7931V53.1017H117.119V52.7931C118.368 52.7112 118.751 52.4439 118.751 51.3117V41.4992C118.751 40.5737 118.623 40.2443 117.797 40.2443C117.523 40.2443 117.331 40.2637 117.078 40.2843V39.9552C118.21 39.6928 119.333 39.391 120.444 39.05L120.529 39.091ZM91.1178 44.215C89.7841 44.215 88.6178 45.2851 88.6178 47.424C88.6178 48.9467 89.1057 52.7316 91.6471 52.7316C92.7264 52.7315 94.1449 51.9495 94.1442 49.008C94.1442 46.4574 93.0646 44.2153 91.1178 44.215ZM71.0172 47.5881C67.8197 48.6161 67.5856 49.7692 67.5856 50.4689V50.5099C67.5856 51.4766 68.2012 52.1143 68.984 52.1144C69.4508 52.1144 70.1055 51.8478 70.2965 51.7453C70.9535 51.436 71.0172 51.1878 71.0172 50.5724V47.5881ZM113.354 47.5881C110.159 48.6161 109.924 49.7692 109.924 50.4689V50.5099C109.924 51.4767 110.54 52.1144 111.323 52.1144C111.789 52.1143 112.445 51.8478 112.635 51.7453C113.293 51.4361 113.354 51.1877 113.354 50.5724V47.5881ZM82.9293 39.049C83.5639 39.0491 84.0299 39.5242 84.0299 40.0998C84.0297 40.6966 83.5638 41.1485 82.9293 41.1486C82.1665 41.1486 81.869 40.4902 81.8688 40.0998C81.8688 39.7094 82.1876 39.0498 82.9293 39.049ZM44.0035 2.05387C51.3922 -0.363077 58.157 0.0851679 59.1158 3.05485C60.0728 6.0238 54.8619 10.3915 47.4733 12.8078C40.0868 15.2257 33.32 14.7757 32.3619 11.8068C31.4036 8.83785 36.6158 4.47014 44.0035 2.05387Z" fill="black" style="fill:black;fill-opacity:1;"/></g><defs><clipPath id="a"><rect width="141" height="112" fill="white" style="fill:white;fill-opacity:1;"/></clipPath></defs></svg>