<svg width="400" height="55" viewBox="0 0 400 55" fill="none" xmlns="http://www.w3.org/2000/svg"><path d="M354.164 7.0752C362.673 7.0752 368.616 13.5525 368.616 22.8262C368.616 22.8637 368.615 22.9011 368.614 22.9385L368.612 23.0215V37.3291C368.612 41.3302 368.469 45.84 366.758 48.7148C364.354 52.6743 360.226 54.7665 354.818 54.7666C346.238 54.7666 341.967 49.5255 340.862 47.9189L340.734 47.7324L342.199 46.6338L342.335 46.8496C344.147 49.7242 348.504 53.0811 354.818 53.0811C359.556 53.081 363.244 51.1831 365.204 47.7363C366.67 45.1385 366.792 41.0367 366.792 37.3965V30.917C364.35 35.8004 359.803 38.5762 354.164 38.5762C349.865 38.5761 345.917 36.9364 343.047 33.959C340.227 31.034 338.674 27.0803 338.674 22.8262C338.674 18.5719 340.227 14.6175 343.047 11.6924C345.917 8.71514 349.866 7.07531 354.164 7.0752ZM386.396 32.2881L397.998 7.75195H400L378.058 54.2266H376.056L385.405 34.3682L371.45 7.75195H373.396L386.396 32.2881ZM133.314 6.68945C142.854 6.47737 149.705 13.5787 149.765 22.623C149.828 32.2069 143.109 39.3318 133.179 38.9111C129.639 38.7154 126.18 37.3209 123.791 34.252C123.791 34.252 123.761 45.0615 123.762 48.2627C123.175 52.7338 116.885 50.3469 116.863 50.3389V22.8447C117.263 14.0735 122.51 6.92972 133.314 6.68945ZM70.9814 7.19238H79.543V13.2891H70.9814V28.8252C70.9799 28.8441 70.5079 34.5167 79.543 32.5703V38.7188C63.2218 41.4297 64.0244 28.5176 64.0244 28.5176L63.9971 13.2783L52.8662 13.2803C47.2252 13.2244 42.8193 17.6476 42.8193 23.0342C42.7947 27.6784 46.4447 32.9478 52.8662 32.7871C54.7874 32.7364 56.3802 32.5905 57.6992 32.3584V38.5293C56.1833 38.8093 54.5225 38.9726 52.71 39.0059C38.9491 38.9997 35.3915 28.1205 35.5645 23.0352C35.2613 19.6691 38.1045 8.0914 50.5625 7.20215L64.0244 7.19238V0H70.9814V7.19238ZM193.132 7.2041C200.257 5.93537 205.29 7.18066 205.29 7.18066C216.379 9.4879 210.919 14.7428 210.003 15.042C209.998 15.0379 207.044 12.3375 200.141 11.9492C191.68 11.4099 191.78 15.3774 191.781 15.4229C191.504 18.3495 195.249 18.8876 195.257 18.8887L204.377 20.166C215.15 21.668 213.837 29.3105 213.837 29.3105C213.131 38.8417 201.805 38.938 201.74 38.9385C186.217 39.8397 180.34 31.8102 180.3 31.7549C178.117 36.0984 173.758 39.001 166.515 39.001C157.88 39.001 151.792 34.1593 151.792 25.4736V10.2656C152.379 5.78656 158.69 8.18945 158.69 8.18945V24.8887L158.701 25.3623C158.914 30.2489 162.394 32.6386 166.655 32.6387C171.054 32.6387 174.62 30.1801 174.62 24.8818C174.62 24.8168 174.641 13.4678 174.64 10.2754C175.227 5.79632 181.538 8.19922 181.538 8.19922V18.9355C182.435 32.1464 195.049 33.1538 195.092 33.1572C207.669 34.8984 206.589 29.748 206.585 29.7275C206.259 27.1233 204.317 26.5324 200.964 26.1025C198.882 25.8356 197.074 25.6533 197.074 25.6533C183.567 24.7985 184.896 15.8887 184.896 15.8887C185.066 8.38028 193.069 7.2131 193.132 7.2041ZM16.7656 6.68945C26.1192 6.6896 33.5301 13.5786 33.5303 22.623C33.5303 31.6676 26.8862 38.9998 16.5938 39C7.23981 39 0 31.8894 0 22.8447C0.000205991 13.3319 7.4119 6.68945 16.7656 6.68945ZM98.043 6.68945C107.397 6.68945 114.807 13.5785 114.808 22.623C114.808 31.6677 108.164 39 97.8711 39C88.5172 39 81.2783 31.8894 81.2783 22.8447C81.2785 13.3319 88.6892 6.68954 98.043 6.68945ZM237.195 7.07617C241.242 7.07626 244.769 8.58394 247.394 11.4355C249.88 14.1377 251.324 17.8691 251.46 21.9414L251.469 22.1826H224.747V22.7578C224.747 26.682 225.993 30.2384 228.255 32.7715C230.662 35.4674 234.057 36.8926 238.072 36.8926C242.418 36.8925 246.136 35.2411 248.822 32.1172L248.987 31.9258L250.266 33.2041L250.12 33.3691C247.123 36.775 242.957 38.5751 238.072 38.5752C229.157 38.5752 222.93 32.0706 222.93 22.7578C222.93 13.6712 228.93 7.07617 237.195 7.07617ZM303.459 7.07617C307.506 7.07626 311.033 8.58394 313.657 11.4355C316.144 14.1377 317.588 17.8691 317.724 21.9414L317.732 22.1826H291.011V22.7578C291.011 26.682 292.257 30.2384 294.519 32.7715C296.926 35.4674 300.321 36.8926 304.336 36.8926C308.682 36.8925 312.399 35.2411 315.086 32.1172L315.251 31.9258L316.529 33.2041L316.384 33.3691C313.387 36.775 309.221 38.5751 304.336 38.5752C295.42 38.5752 289.193 32.0706 289.193 22.7578C289.194 13.6712 295.193 7.07617 303.459 7.07617ZM270.382 7.07617C273.999 7.07721 277.428 8.50514 279.79 10.9941C282.043 13.3975 283.092 16.5136 283.092 20.8018V37.9004H281.274V20.8018C281.274 17.0106 280.351 14.2536 278.369 12.125C276.424 10.0496 273.362 8.75923 270.38 8.75879C267.398 8.75922 264.336 10.0492 262.39 12.125C260.408 14.2532 259.485 17.0105 259.485 20.8018V37.9004H257.668V20.8018C257.668 16.5137 258.717 13.3973 260.969 10.9951C263.331 8.50503 266.761 7.07724 270.378 7.07617H270.382ZM336.938 8.75879H336.705C333.722 8.75879 330.659 10.0488 328.713 12.125C326.731 14.2532 325.809 17.0105 325.809 20.8018V37.9004H323.991V20.8018C323.991 16.5137 325.04 13.3973 327.292 10.9951C329.656 8.50399 333.086 7.07617 336.705 7.07617H336.938V8.75879ZM354.164 8.76074C346.506 8.76099 340.507 14.9391 340.507 22.8262C340.507 30.7133 346.506 36.8914 354.164 36.8916C361.594 36.8916 366.783 31.1078 366.783 22.8262C366.783 14.5446 361.594 8.76074 354.164 8.76074ZM133.135 12.8164C127.348 12.8166 123.721 17.3197 123.721 22.875C123.721 28.4304 127.599 32.9344 133.135 32.9346C138.632 32.9346 142.55 28.4305 142.55 22.875C142.55 17.3196 139.038 12.8164 133.135 12.8164ZM16.7646 12.7861C10.919 12.7863 7.25494 17.2894 7.25488 22.8447C7.25488 28.4002 11.1727 32.9041 16.7646 32.9043C22.3181 32.9043 26.2754 28.4003 26.2754 22.8447C26.2754 17.2892 22.728 12.7861 16.7646 12.7861ZM98.043 12.7852C92.1971 12.7852 88.5322 17.2892 88.5322 22.8447C88.5322 28.4003 92.4508 32.9043 98.043 32.9043C103.596 32.9043 107.554 28.4002 107.554 22.8447C107.554 17.2892 104.006 12.7852 98.043 12.7852ZM237.195 8.75879C230.689 8.75879 225.893 13.358 224.915 20.5H249.419C249.108 17.3159 247.809 14.4083 245.746 12.2891C243.498 9.97996 240.542 8.75885 237.195 8.75879ZM303.459 8.75879C296.952 8.75879 292.156 13.358 291.179 20.5H315.683C315.372 17.3159 314.073 14.4083 312.01 12.2891C309.762 9.97996 306.805 8.75885 303.459 8.75879Z" fill="black" style="fill:black;fill-opacity:1;"/></svg>