<svg width="330" height="56" viewBox="0 0 330 56" fill="none" xmlns="http://www.w3.org/2000/svg"><path d="M3.69873 4.05054H67.5735V19.9217H3.69873V4.05054Z" fill="black" style="fill:black;fill-opacity:1;"/><path d="M3.69873 35.7903H67.5735V51.6643H3.69873V35.7903Z" fill="black" style="fill:black;fill-opacity:1;"/><path d="M112.478 15.4199C111.134 8.76522 109.731 6.50606 102.19 6.50606C98.9941 6.50606 96.3746 7.4092 94.5902 8.95895C93.0533 10.2468 92.3488 11.8647 92.3488 13.8647C92.3488 15.6763 93.3117 17.8782 94.5276 19.0377C96.1842 20.6557 98.6106 22.0745 102.636 24.1399C107.622 26.7238 111.393 28.2135 114.137 31.373C115.481 32.9282 116.825 35.834 116.825 39.0017C116.825 42.3604 115.671 45.3944 113.242 47.5908C110.56 50.0436 106.344 51.6616 100.656 51.6616C96.9513 51.6616 92.4141 50.8213 88.7119 49.4652C88.1325 45.4599 87.4335 42.7451 86.6011 39.9048L88.8371 39.3209C90.8853 47.2661 94.4597 49.206 101.23 49.206C104.168 49.206 106.915 48.3684 108.901 46.8159C110.879 45.2634 112.162 43.0043 112.162 40.0958C112.162 37.5147 111.455 35.9595 110.114 34.3469C108.069 31.8941 104.617 30.3417 100.912 28.47C97.0166 26.4673 91.6497 23.556 89.7973 20.9094C88.6466 19.2287 87.8796 17.1006 87.8796 14.7078C87.8796 11.933 89.0274 9.15542 91.7177 7.08455C94.0135 5.27286 97.5252 4.05054 102.511 4.05054C106.6 4.05054 109.918 4.56888 113.183 5.85943C113.561 8.50328 114.137 11.9957 114.717 14.9042L112.478 15.4199Z" fill="black" style="fill:black;fill-opacity:1;"/><path d="M126.59 36.1586C126.59 31.182 127.483 27.9543 129.207 25.6897C130.736 23.8862 132.852 22.9804 135.404 22.9804C138.088 22.9804 140.256 23.8862 141.731 25.6897C143.455 27.9543 144.348 31.182 144.348 36.1586C144.348 41.389 143.259 44.6822 141.663 46.7504C140.197 48.4338 138.151 49.4652 135.466 49.4652C132.784 49.4652 130.736 48.4338 129.272 46.7504C127.676 44.6822 126.59 41.389 126.59 36.1586ZM121.988 36.0932C121.988 41.9702 123.519 45.8473 126.008 48.2346C128.571 50.4992 131.636 51.4679 135.466 51.4679C139.489 51.4679 142.623 50.4311 145.18 48.1092C147.609 45.7163 149.078 41.9047 149.078 36.0932C149.078 30.9883 147.674 27.0484 145.18 24.5274C142.688 22.1373 139.745 20.9722 135.466 20.9722C131.378 20.9722 128.44 22.1373 125.948 24.4646C123.391 26.983 121.988 30.9883 121.988 36.0932Z" fill="black" style="fill:black;fill-opacity:1;"/><path d="M157.622 23.7552H152.894V21.6898H157.622V17.6163C157.622 13.6764 158.579 10.7024 160.69 8.50328C162.219 7.02174 164.389 5.99039 167.205 5.99039C169.821 5.99039 171.356 6.69709 172.634 7.53745C174.487 8.76523 175.381 10.3804 175.381 11.54C175.381 12.836 174.742 13.5482 173.592 13.5482C172.06 13.5482 171.486 12.1867 170.782 10.7679C170.074 9.34637 169.245 7.99306 167.267 7.99306C165.989 7.99306 164.969 8.44055 164.071 9.4146C162.795 10.9616 162.031 13.289 162.031 17.8782V21.6898H170.142V23.7552H162.031V44.876C162.031 48.7558 162.287 49.1405 167.08 49.1405V50.753H152.829V49.1405C157.301 49.1405 157.622 48.6903 157.622 44.745V23.7552Z" fill="black" style="fill:black;fill-opacity:1;"/><path d="M172.898 22.2682C176.924 21.8808 179.685 20.3283 180.506 13.5482H182.1V21.6898H188.871V23.7552H182.1V44.6195C182.1 47.6535 182.993 49.206 185.226 49.206C186.703 49.206 187.913 48.6903 189.192 47.719L190.215 49.1405C188.555 50.6248 186.572 51.4679 183.953 51.4679C180.697 51.4679 177.696 49.9154 177.696 44.876V23.7552H172.898V22.2682Z" fill="black" style="fill:black;fill-opacity:1;"/><path d="M203.677 9.66832C203.677 7.92757 203.932 7.40916 205.592 7.40916H211.66C216.138 7.40916 219.008 8.44055 220.8 9.92755C222.206 11.0926 223.292 13.6109 223.292 15.81C223.292 18.9068 222.206 21.1714 220.354 22.7211C218.05 24.6583 214.473 25.4987 210.066 25.4987H203.677V9.66832ZM198.952 43.9756C198.952 48.5566 198.56 48.8813 193.775 48.8813V50.753H214.601C221.246 50.753 225.019 49.206 227.514 46.7504C230.065 44.2975 231.088 41.0671 231.088 37.8366C231.088 34.2842 229.301 31.6977 226.997 29.8914C224.252 27.7551 220.547 26.661 216.394 26.53V26.3991C220.419 25.8179 223.101 24.5273 225.019 22.7866C227.383 20.6557 228.21 17.8072 228.21 15.3516C228.21 12.0584 226.553 9.47733 224.124 7.79661C220.672 5.46928 216.837 4.95358 210.961 4.95358H193.775V6.82803C198.56 6.82803 198.952 7.14726 198.952 11.8019V43.9756ZM203.677 27.9543H211.601C216.837 27.9543 220.354 28.8573 222.593 30.6063C224.886 32.347 226.107 34.8599 226.107 37.7029C226.107 41.0671 225.144 43.4599 223.61 45.0751C221.437 47.337 218.502 48.3056 213.962 48.3056H206.041C204.058 48.3056 203.677 47.85 203.677 45.1379V27.9543Z" fill="black" style="fill:black;fill-opacity:1;"/><path d="M252.338 45.6563C250.735 47.2661 248.567 49.0123 245.434 49.0123C243.519 49.0123 242.178 48.3683 241.215 47.4571C240.26 46.4939 239.814 45.0751 239.814 43.3863C239.814 40.415 241.601 38.7397 244.09 37.3837C246.454 35.9022 249.59 34.9909 252.338 34.2215V45.6563ZM256.747 29.9542C256.747 27.1139 256.295 25.3677 254.636 23.496C253.039 21.6898 250.801 20.9722 246.968 20.9722C243.581 20.9722 241.345 21.8153 239.683 22.7866C237.641 24.0117 236.365 25.7551 236.365 27.3049C236.365 28.2789 236.931 29.1793 238.147 29.1793C239.493 29.1793 240.067 28.5354 240.382 27.6296C240.959 26.2053 241.539 25.1058 242.371 24.4646C243.519 23.556 244.795 22.9804 246.712 22.9804C248.823 22.9804 250.357 23.6242 251.309 24.9175C252.142 26.0143 252.338 27.9542 252.338 29.4358V32.2161L248.567 33.1219C244.476 34.0278 241.283 35.3155 239.109 36.8053C236.3 38.677 235.149 41.0016 235.149 43.9756C235.149 46.4284 236.169 48.3056 237.706 49.5307C239.365 50.8894 241.539 51.4679 243.581 51.4679C247.8 51.4679 250.357 49.9836 252.523 47.9155H252.716C253.295 50.0436 254.636 51.2086 256.872 51.2086C258.534 51.2086 259.682 50.8212 260.767 50.3055L260.384 48.8213C259.875 49.1405 259.293 49.2687 258.665 49.2687C257.386 49.2687 256.747 47.9754 256.747 45.0751V29.9542Z" fill="black" style="fill:black;fill-opacity:1;"/><path d="M289.264 45.0069C289.264 48.6221 289.519 49.1405 292.395 49.1405V50.753H281.596V49.1405C284.664 49.1405 284.854 48.7558 284.854 44.876V30.4726C284.854 27.9543 284.533 25.8861 283.323 24.5928C282.491 23.7552 281.34 23.3023 279.618 23.3023C276.933 23.3023 274.058 25.7551 271.501 29.3103V44.876C271.501 48.7558 271.564 49.1405 274.567 49.1405V50.753H263.39V49.1405C266.836 49.1405 267.092 48.7558 267.092 44.876V29.1793C267.092 25.4332 266.771 24.983 263.39 25.043V23.6242C266.197 23.1713 268.37 22.5247 270.478 20.9722L271.118 21.3624L271.371 26.3363H271.501C274.058 23.0431 277.314 20.9722 280.829 20.9722C283.579 20.9722 285.556 21.6898 286.96 23.0431C288.434 24.4646 289.264 26.792 289.264 30.2107V45.0069Z" fill="black" style="fill:black;fill-opacity:1;"/><path d="M304.235 34.8599L313.372 25.8861C315.097 24.2736 315.546 23.3023 312.477 23.3023V21.6898H321.935V23.3023C320.083 23.3678 319.058 23.8125 317.591 25.2422L310.881 31.6977L320.657 46.6904C322.063 48.9495 323.47 49.206 325.387 49.1405V50.753H318.1L307.69 34.4752L304.108 38.0331V44.876C304.108 48.6221 304.235 49.1405 307.753 49.1405V50.753H295.868V49.1405C299.568 49.1405 299.695 48.6221 299.695 44.876V14.2548C299.695 10.5087 299.315 10.0585 295.868 10.0585V8.637C298.994 8.18408 301.17 7.47465 303.534 5.99039L304.108 6.37514V34.8599H304.235Z" fill="black" style="fill:black;fill-opacity:1;"/></svg>