<svg width="337" height="76" viewBox="0 0 337 76" fill="none" xmlns="http://www.w3.org/2000/svg"><g clip-path="url(#a)"><g clip-path="url(#b)"><path d="M43.8306 19.7838L32.4259 0L0 56.1094L11.4261 75.8931L22.8309 56.1094L34.3662 76L45.771 56.2163L34.2594 36.3256L43.8306 19.7838Z" fill="black" style="fill:black;fill-opacity:1;"/><path opacity="0.7" d="M32.4258 0L43.8305 19.7838H74.6153L63.1868 0H32.4258ZM45.7709 56.2163L76.3609 56.1949L64.9562 75.9786L34.3662 76L45.7709 56.2163Z" fill="black" style="fill:black;fill-opacity:1;"/><path opacity="0.4" d="M65.0413 36.328L74.6125 19.7838H55.4273L45.7705 36.4111L57.2394 56.1949H76.3629L65.0413 36.328Z" fill="black" style="fill:black;fill-opacity:1;"/></g><g clip-path="url(#c)"><path d="M125.705 21.8025C126.118 21.8025 126.336 22.0163 126.336 22.4319V27.835C126.336 28.2506 126.118 28.4668 125.705 28.4668H116.416V54.4611C116.416 54.8744 116.197 55.0929 115.784 55.0929H109.709C109.296 55.0929 109.077 54.8744 109.077 54.4611V28.4668H99.6317C99.2138 28.4668 99 28.2506 99 27.835V22.4319C99 22.0186 99.2161 21.8001 99.6317 21.8001L125.705 21.8025ZM127.776 34.2475C130.003 31.958 132.962 30.8133 136.651 30.8133C140.121 30.8133 142.921 31.8583 145.051 33.9293C147.182 36.0003 148.267 38.7624 148.267 42.1349C148.267 42.9638 148.208 43.8496 148.051 44.7189C147.992 45.0751 147.794 45.2889 147.379 45.2889H131.602C131.858 48.032 134.245 49.8465 137.518 49.8465C140.161 49.7871 142.192 48.9583 143.693 47.3623C143.947 47.006 144.263 47.006 144.579 47.3623L147.538 50.635C147.794 50.9509 147.854 51.2668 147.597 51.5233C145.367 54.0669 141.482 55.7223 137.124 55.7223C133.276 55.7223 130.222 54.5799 127.894 52.2928C125.567 50.0033 124.422 47.006 124.422 43.2203C124.422 39.4321 125.567 36.5323 127.794 34.2451L127.776 34.2475ZM141.049 40.4771C140.89 38.2494 139.135 36.7484 136.375 36.7484C133.613 36.7484 131.858 38.209 131.661 40.4771H141.049ZM167.576 31.3453C167.932 31.4046 168.148 31.6018 168.148 32.0174V37.3018C168.148 37.7768 167.932 37.9335 167.478 37.8741C166.946 37.7703 166.404 37.7178 165.861 37.7174C163.118 37.7174 160.674 39.0189 159.589 41.0899V54.4231C159.589 54.8364 159.373 55.0525 158.957 55.0525H153C152.587 55.0525 152.371 54.8364 152.371 54.4231V32.2715C152.371 31.8559 152.587 31.6398 153 31.6398H158.957C159.373 31.6398 159.589 31.8559 159.589 32.2715V34.1454C160.89 32.1741 163.021 31.1861 165.92 31.1861C166.49 31.1861 167.063 31.2479 167.576 31.3453ZM210.67 40.9308V54.4208C210.67 54.8364 210.452 55.0525 210.038 55.0525H204.117C203.704 55.0525 203.488 54.8364 203.488 54.4231V42.0755C203.488 38.9595 202.187 37.4015 199.543 37.4015C197.472 37.4015 195.974 38.2304 194.988 39.8478C195.045 40.1043 195.045 40.4771 195.045 40.9308V54.4208C195.045 54.8364 194.831 55.0525 194.416 55.0525H188.459C188.044 55.0525 187.827 54.8364 187.827 54.4231V42.0755C187.827 38.9595 186.526 37.4015 183.942 37.4015C181.812 37.4015 180.254 38.2304 179.387 39.8478V54.4208C179.387 54.8364 179.171 55.0525 178.755 55.0525H172.798C172.385 55.0525 172.169 54.8364 172.169 54.4231V32.2715C172.169 31.8559 172.383 31.6398 172.798 31.6398H178.755C179.171 31.6398 179.387 31.8559 179.387 32.2715V33.1004C181.142 31.5994 183.329 30.8109 185.916 30.8109C189.07 30.8109 191.456 31.9556 193.074 34.1834C194.888 32.1528 198.104 30.8109 201.279 30.8109C207.098 30.8109 210.668 34.6964 210.668 40.9284L210.67 40.9308ZM214.829 23.6146C214.829 20.9713 216.9 19 219.662 19C222.424 19 224.495 20.9713 224.495 23.6146C224.495 26.258 222.424 28.2293 219.662 28.2293C216.9 28.2293 214.829 26.1583 214.829 23.6146ZM216.643 55.0525C216.23 55.0525 216.014 54.8364 216.014 54.4231V32.2715C216.014 31.8559 216.23 31.6398 216.646 31.6398H222.6C223.015 31.6398 223.231 31.8559 223.231 32.2715V54.4184C223.231 54.834 223.015 55.0501 222.6 55.0501H216.643V55.0525ZM252.323 40.9308V54.4208C252.323 54.8364 252.107 55.0525 251.693 55.0525H245.737C245.321 55.0525 245.105 54.8364 245.105 54.4231V42.0755C245.105 38.9595 243.607 37.4015 240.647 37.4015C238.517 37.4015 236.959 38.2304 236.092 39.8478V54.4208C236.092 54.8364 235.876 55.0525 235.46 55.0525H229.506C229.093 55.0525 228.877 54.8364 228.877 54.4231V32.2715C228.877 31.8559 229.091 31.6398 229.506 31.6398H235.463C235.878 31.6398 236.094 31.8559 236.094 32.2715V33.1004C237.85 31.5994 240.099 30.8109 242.742 30.8109C248.402 30.8109 252.347 34.5396 252.347 40.9284H252.325L252.323 40.9308ZM275.142 32.2739C275.142 31.8583 275.36 31.6421 275.774 31.6421H281.73C282.143 31.6421 282.362 31.8583 282.362 32.2739V54.4208C282.362 54.8364 282.143 55.0525 281.73 55.0525H275.774C275.36 55.0525 275.142 54.8364 275.142 54.4231V53.238C273.486 54.8958 271.14 55.7223 268.081 55.7223C264.611 55.7223 261.811 54.5799 259.681 52.3498C257.55 50.0626 256.524 47.0654 256.524 43.3176C256.524 39.5699 257.569 36.5133 259.681 34.2451C261.811 31.958 264.652 30.8133 268.14 30.8133C271.197 30.8133 273.525 31.6421 275.142 33.2595V32.2739ZM275.142 46.2769V40.261C274.256 38.5463 272.126 37.3635 269.798 37.3635C266.266 37.3635 263.882 39.748 263.882 43.3176C263.882 46.8873 266.267 49.1744 269.796 49.1744C272.242 49.1744 274.315 47.9916 275.142 46.2769ZM288.278 55.0525C287.865 55.0525 287.649 54.8364 287.649 54.4208V22.4129C287.649 21.9973 287.865 21.7811 288.278 21.7811H294.235C294.65 21.7811 294.866 21.9973 294.866 22.4129V54.4208C294.866 54.8364 294.65 55.0525 294.235 55.0525H288.278ZM327.843 34.5016C333.09 35.2711 336.5 39.1163 336.5 44.4624C336.5 47.7351 335.317 50.3785 332.971 52.4495C330.643 54.5205 327.684 55.5655 323.996 55.5655C320.723 55.5655 317.98 54.7366 315.752 53.0219C313.524 51.3048 312.223 49.0176 311.867 46.1771C311.807 45.7639 311.966 45.5074 312.38 45.448L318.236 44.3033C318.652 44.2439 318.908 44.403 318.968 44.8756C319.224 47.4193 321.255 49.1364 324.095 49.1364C326.936 49.1364 329.223 47.2625 329.223 44.3033C329.223 41.3464 327.19 39.6886 324.133 39.5295L320.604 39.4725H320.445C320.091 39.4725 319.816 39.3134 319.716 38.9595L318.73 35.1714C318.695 35.0233 318.7 34.8683 318.745 34.7228C318.79 34.5773 318.874 34.4468 318.987 34.3449L325.475 28.0131H314.213C313.8 28.0131 313.584 27.797 313.584 27.3814V22.4129C313.584 21.9973 313.797 21.7811 314.213 21.7811H334.075C334.488 21.7811 334.705 21.9973 334.705 22.4129V27.1866C334.705 27.5001 334.607 27.7566 334.391 27.9538L327.803 34.485L327.843 34.5016Z" fill="black" style="fill:black;fill-opacity:1;"/></g></g><defs><clipPath id="a"><rect width="337" height="76" fill="white" style="fill:white;fill-opacity:1;"/></clipPath><clipPath id="b"><rect width="76" height="76" fill="white" style="fill:white;fill-opacity:1;"/></clipPath><clipPath id="c"><rect width="237.5" height="38" fill="white" style="fill:white;fill-opacity:1;" transform="translate(99 19)"/></clipPath></defs></svg>